<svg width="40" style="padding-left:5px" viewBox="0 0 253.08 247.46"><path d="M132.46,116c.34,2,1.36,3,3.15,3.18,2.63.24,4.8,1.65,7,2.89,14.41,8.21,25,22.34,28.07,38.64.45,2.42,1.05,4.82,1.3,7.26.28,2.81.24,5.66.36,8.48.12,3-1,5.78-1.48,8.68-.25,1.69-.28,3.42-.6,5.09-3.08,16.09-13.86,31-27.5,39.86-2.19,1.42-4.44,2.76-6.69,4.08a18,18,0,0,1-2.21.91c-2,.82-3.92,1.68-5.91,2.48a71.26,71.26,0,0,1-26.33,4.9l-96.8.3a10.68,10.68,0,0,1-3.3-.41A2.59,2.59,0,0,1,.16,240.8,8.27,8.27,0,0,1,0,238.3Q0,122.52.08,6.71A42.71,42.71,0,0,1,.26,2.05c.17-1.48.85-2,2.32-2L4.14,0c29.2,0,58.39,0,87.59.06,7.35,0,18.18.7,25,3.69.9.4,1.93.5,2.87.82,1.58.53,3.13,1.11,4.69,1.68.6.22,1.2.43,1.78.69,1.35.62,2.69,1.3,4,1.92a25.57,25.57,0,0,1,2.51,1.07c8.24,5,15.31,10.76,20.76,18.73s7.76,14.91,10,24.06c4.6,19-1.67,40.07-15.8,53.72-1.33,1.29-2.79,2.43-4.22,3.61q-1,.84-2.1,1.59c-.62.42-1.29.75-1.93,1.15s-1.15.82-1.78,1.13c-1.1.53-2.24,1-3.37,1.45C133.56,115.61,133,115.81,132.46,116ZM52.63,170h0v25.43c0,1.74.84,2.6,2.52,2.6,9.95,0,19.91.08,29.87,0,3.86,0,7.72-.53,11.57-.87a8.14,8.14,0,0,0,2.43-.63c3.26-1.43,6.61-2.69,9.48-4.88a37.32,37.32,0,0,0,3.3-2.7,11.25,11.25,0,0,0,1.54-2.26c.67-1.11,1.32-2.24,2-3.37.17-.31.21-.72.44-1a7.45,7.45,0,0,0,1.64-4,43.16,43.16,0,0,0,.26-15.12,8.39,8.39,0,0,0-.65-2.77c-1.32-2.37-2.21-4.92-4-7.09a25.75,25.75,0,0,0-12.77-8.69c-1.48-.43-2.88-1.31-4.37-1.5a80.52,80.52,0,0,0-9.8-.76c-10.27-.09-20.55,0-30.82,0-2,0-2.54.6-2.54,2.59ZM68.9,45.82v-.24H55.46c-2.06,0-2.5.39-2.78,2.44a7.73,7.73,0,0,0-.06,1q0,22.79,0,45.58c0,2.17.63,2.79,2.76,2.77,9.47-.1,18.93-.14,28.4-.35a47.55,47.55,0,0,0,7.56-1,39.87,39.87,0,0,0,4.45-1.35,6.17,6.17,0,0,0,1.87-.72c1.71-1.36,4-1.82,5.47-3.53.9-1,2-1.87,2.94-2.86a16.41,16.41,0,0,0,1.5-2.08c.33-.5.61-1,.91-1.53a12.24,12.24,0,0,0,1.29-2.27c.38-1.07.42-2.26.78-3.34.65-2,1.52-3.79,1.57-6A18.16,18.16,0,0,0,110.58,64c-.43-.94-.29-2.15-.7-3.1a22,22,0,0,0-2.21-3.93,23.44,23.44,0,0,0-3.43-4.17A14.3,14.3,0,0,0,99,49.53a8.11,8.11,0,0,1-1.13-.66A9.78,9.78,0,0,0,96,48q-3.42-.9-6.87-1.67a17.4,17.4,0,0,0-3.43-.49C80.09,45.79,74.49,45.82,68.9,45.82Z"/><path d="M253.08,212.39c-.85,10-3.26,17.38-10.13,24.81-8.1,8.78-18.59,10.6-30,10.21a17.27,17.27,0,0,1-4.16-.89,44.92,44.92,0,0,1-4.38-1.6,15.47,15.47,0,0,1-2.07-1.14c-.28-.16-.5-.47-.78-.54-2.23-.57-3.69-2.31-5.42-3.6-1.34-1-2.24-2.57-3.55-3.62-2-1.62-2.81-4.11-4.46-6a5.22,5.22,0,0,1-.52-1.06c-.57-1.13-1.2-2.22-1.71-3.38a12.3,12.3,0,0,1-.94-2.82c-.69-3.75-2.17-7.4-1.74-11.3.24-2.21.72-4.39,1.12-6.58.17-1,.4-2,.6-2.93a6.1,6.1,0,0,1,1.68-3.63c.09-.07.12-.2.18-.31,1.13-2.17,2.26-4.34,3.41-6.5a5,5,0,0,1,.79-1,51.08,51.08,0,0,1,4.7-4.72c1.81-1.43,3.31-3.38,5.76-3.89a1.82,1.82,0,0,0,.84-.43,8.67,8.67,0,0,1,4.52-2c.89-.21,1.74-.57,2.63-.83a16.93,16.93,0,0,1,4.24-1.11C235.8,177.2,251.12,190.37,253.08,212.39Z"/></svg>
