<svg id="Layer_1" data-name="Layer 1" xmlns="http://www.w3.org/2000/svg" viewBox="0 0 56.22 58.09"><defs><style>.cls-2{fill:#c4c4c4}.cls-7{fill:#333}.cls-8{fill:#59595b}</style></defs><path id="path47_fill" data-name="path47 fill" d="M36.08 22l19 12.17a1.84 1.84 0 0 1 .59 2.95L34 57.4a2 2 0 0 1-2.56.41L11.13 43.74a2.07 2.07 0 0 1-.21-3.4l22.95-18.09a2 2 0 0 1 2.21-.25z" fill="#959596"/><g id="laptop"><path id="path41_fill" data-name="path41 fill" class="cls-2" d="M1.18 17.12L25.69.7c1.28-.95 2.13-1 2.26.45L34.57 20a2.07 2.07 0 0 1-.78 1.83L11.35 40c-1.3 1-2.63.88-3.59-1.41L0 19.19a2.08 2.08 0 0 1 1.18-2.07z"/><path id="path41_fill-2" data-name="path41 fill" d="M1.72 17.09L26.23.67c1.27-.95 2.12-1 2.26.46L35.11 20a2.11 2.11 0 0 1-.78 1.83L11.35 40c-1.53 1.09-2.47.34-3.17-1.71L.55 19.17a2.07 2.07 0 0 1 1.17-2.08z" fill="#424144"/><path id="path47_fill-2" data-name="path47 fill" class="cls-2" d="M37.26 20.94l17.86 12.39a2.06 2.06 0 0 1 .58 3.19L34 56.73a2.06 2.06 0 0 1-2.59.41l-20.1-13.86a2.06 2.06 0 0 1-.23-3.4L35 21.14a2.06 2.06 0 0 1 2.26-.2z"/><path id="path45_fill" data-name="path45 fill" d="M1.84 18.82L27.58 1.17l6.64 19L9.85 39z" fill="#b2c1d4"/><path id="path55_fill" data-name="path55 fill" d="M42.33 35.39l6.75 4.3a.64.64 0 0 1 .14 1L39 50.29a.62.62 0 0 1-.75.08l-7-5a.64.64 0 0 1-.07-1.06l10.39-8.82a.64.64 0 0 1 .76-.1z" fill="#dadae0" stroke="#868687" stroke-miterlimit="10" stroke-width=".15"/><path id="path55_fill-2" data-name="path55 fill" d="M36.75 23l9.38 6.83c.07.07.22.32 0 .48L24.54 48.77a.57.57 0 0 1-.57.07L13.81 41.6c-.65-.39-.2-.66.41-1.12l21.84-17.39c.34-.25.32-.28.69-.09z" fill="#aaaab2"/><path class="cls-7" d="M20.41 42.23l-1.21-.88a.22.22 0 0 1 .05-.3l1-.75a.23.23 0 0 1 .29.05l1.12.8c.07.1.11.24 0 .31l-.93.82c-.12.07-.2.03-.32-.05z"/><path class="cls-8" d="M20.42 42.1l-1.13-.83a.19.19 0 0 1 0-.28l.91-.71a.24.24 0 0 1 .29 0l1.11.78a.2.2 0 0 1 0 .28l-.89.77c-.09.1-.17.07-.29-.01z"/><path class="cls-7" d="M22 40.9l-1.2-.9a.21.21 0 0 1 .05-.3l1-.75a.24.24 0 0 1 .3.05l1.11.81c.07.09.12.24 0 .31l-.96.88c-.09 0-.18 0-.3-.1z"/><path class="cls-8" d="M22 40.77L20.88 40a.22.22 0 0 1 .05-.29l.91-.71a.23.23 0 0 1 .28 0l1.12.77a.19.19 0 0 1 0 .28l-.89.77c-.14.07-.21.04-.35-.05z"/><path class="cls-7" d="M23.56 39.58l-1.2-.87a.21.21 0 0 1 .05-.3l1-.76a.28.28 0 0 1 .3.05l1.11.81c.07.1.11.24 0 .31l-.94.81c-.12.07-.2.04-.32-.05z"/><path class="cls-8" d="M23.58 39.46l-1.14-.83a.2.2 0 0 1 0-.28l.91-.72a.24.24 0 0 1 .28 0l1.12.77a.21.21 0 0 1-.05.29l-.89.77c-.04.11-.11.08-.23 0z"/><path class="cls-7" d="M25.05 38.37l-1.2-.87a.21.21 0 0 1 0-.3l1-.75a.24.24 0 0 1 .3 0l1.11.8c.07.1.12.24 0 .31l-.94.82c-.06.11-.14.08-.27-.01z"/><path class="cls-8" d="M25.07 38.25l-1.13-.83a.19.19 0 0 1 0-.28l.91-.72a.26.26 0 0 1 .29 0l1.11.77a.21.21 0 0 1 0 .29l-.89.77c-.1.11-.17.08-.29 0z"/><path class="cls-7" d="M26.59 37.13l-1.21-.88a.23.23 0 0 1 .05-.3l1-.75c.09-.07.21 0 .3 0l1.11.8c.07.1.11.24 0 .31l-.93.82c-.12.12-.2.08-.32 0z"/><path class="cls-8" d="M26.61 37l-1.14-.83a.2.2 0 0 1 .05-.28l.91-.71a.23.23 0 0 1 .28 0l1.12.78a.21.21 0 0 1 0 .28l-.89.77c-.14.1-.22.07-.33-.01z"/><path class="cls-7" d="M28.22 36L27 35.08a.21.21 0 0 1 .05-.3L28 34a.24.24 0 0 1 .3 0l1.11.81c.07.09.12.24 0 .31l-.94.81c-.04.14-.12.07-.25.07z"/><path class="cls-8" d="M28.24 35.83L27.11 35a.21.21 0 0 1 0-.29l.91-.71a.25.25 0 0 1 .29 0l1.11.77a.19.19 0 0 1 0 .28l-.89.77c-.1.12-.17.09-.29.01z"/><path class="cls-7" d="M29.76 34.7l-1.2-.87a.21.21 0 0 1 .05-.3l1-.76a.24.24 0 0 1 .3 0l1.11.81c.07.09.12.24 0 .31l-.94.81c-.08.12-.19.09-.32 0z"/><path class="cls-8" d="M29.78 34.58l-1.14-.83a.22.22 0 0 1 .05-.29l.91-.71a.23.23 0 0 1 .28 0l1.12.77a.19.19 0 0 1-.05.28l-.89.77c-.06.12-.16.09-.28.01z"/><path class="cls-7" d="M31.43 33.48l-1.2-.88a.21.21 0 0 1 .05-.3l1-.75a.24.24 0 0 1 .3.05l1.11.8c.07.1.11.24 0 .31l-.94.82c-.12.06-.2.03-.32-.05z"/><path class="cls-8" d="M31.45 33.35l-1.14-.83a.2.2 0 0 1 .05-.28l.91-.71a.23.23 0 0 1 .28 0l1.12.77a.22.22 0 0 1-.05.29l-.89.77c-.09.1-.17.07-.28-.01z"/><path class="cls-7" d="M23 43l-1.21-.88a.21.21 0 0 1 .05-.29l1-.76a.26.26 0 0 1 .3 0l1.12.8c.07.1.11.24 0 .31l-.93.82c-.11.13-.2.1-.33 0z"/><path class="cls-8" d="M23 42.89l-1.14-.82a.21.21 0 0 1 0-.29l.91-.71a.23.23 0 0 1 .28 0l1.12.77a.2.2 0 0 1 0 .28l-.89.77c-.06.11-.13.11-.28 0z"/><path class="cls-7" d="M24.52 41.81l-1.21-.87a.21.21 0 0 1 .05-.3l1-.76c.09-.07.21 0 .3 0l1.11.8c.07.1.12.24 0 .31l-.93.82c-.12.12-.2.09-.32 0z"/><path class="cls-8" d="M24.54 41.68l-1.14-.82a.19.19 0 0 1 0-.28l.91-.72a.23.23 0 0 1 .28 0l1.12.76a.21.21 0 0 1 0 .29l-.89.77c-.09.12-.17.08-.28 0z"/><path class="cls-7" d="M26 40.55l-1.21-.87a.21.21 0 0 1 .05-.3l1-.76a.26.26 0 0 1 .3.05l1.11.8c.07.1.12.24 0 .31l-.93.82c-.1.07-.18.04-.32-.05z"/><path class="cls-8" d="M26 40.43l-1.15-.83a.21.21 0 0 1 .05-.28l.91-.72a.23.23 0 0 1 .28 0l1.12.76a.21.21 0 0 1 0 .29l-.89.77c-.09.12-.17.09-.32.01z"/><path class="cls-7" d="M27.53 39.35l-1.21-.87a.21.21 0 0 1 .05-.3l.95-.76a.24.24 0 0 1 .3 0l1.12.8c.07.09.11.24 0 .31l-.93.82c-.08.12-.16.08-.28 0z"/><path class="cls-8" d="M27.54 39.22l-1.14-.82a.2.2 0 0 1 .05-.28l.9-.72a.23.23 0 0 1 .29.05l1.12.76a.2.2 0 0 1-.05.28l-.88.78c-.09.06-.17.03-.29-.05z"/><path class="cls-7" d="M29 38.19l-1.21-.87a.22.22 0 0 1 0-.3l1-.76a.24.24 0 0 1 .3.05l1.12.8c.07.09.11.24 0 .3l-.93.83c-.08.07-.17.03-.28-.05z"/><path class="cls-8" d="M29 38.06l-1.14-.82a.19.19 0 0 1 0-.28l.91-.72a.23.23 0 0 1 .28 0l1.12.77a.19.19 0 0 1 0 .28l-.89.78c-.08.1-.15.07-.28-.01z"/><path class="cls-7" d="M30.5 37l-1.21-.87a.21.21 0 0 1 .05-.3l1-.75a.25.25 0 0 1 .3 0l1.11.8c.07.1.12.24 0 .31l-.95.81c-.1.1-.18.07-.3 0z"/><path class="cls-8" d="M30.52 36.86L29.38 36a.2.2 0 0 1 0-.28l.91-.72a.23.23 0 0 1 .28 0l1.12.76a.21.21 0 0 1 0 .29l-.89.77c-.09.18-.17.12-.28.04z"/><path class="cls-7" d="M32 35.73l-1.21-.87a.21.21 0 0 1 .05-.3l1-.76c.09-.07.21 0 .3.05l1.11.79c.07.1.12.24 0 .31l-.93.82c-.12.07-.2.04-.32-.04z"/><path class="cls-8" d="M32 35.6l-1.15-.82a.22.22 0 0 1 .05-.29l.91-.71a.23.23 0 0 1 .28 0l1.12.77a.19.19 0 0 1 0 .28l-.88.77c-.12.11-.2.08-.33 0z"/><path class="cls-7" d="M33.51 34.52l-1.21-.87a.21.21 0 0 1 .05-.3l.95-.76a.24.24 0 0 1 .3 0l1.12.8c.07.1.11.24 0 .31l-.93.82c-.08.12-.16.09-.28 0z"/><path class="cls-8" d="M33.52 34.4l-1.14-.83a.21.21 0 0 1 0-.28l.9-.72a.25.25 0 0 1 .29 0l1.12.76a.22.22 0 0 1-.05.29l-.88.77c-.04.12-.12.09-.24.01z"/><path class="cls-7" d="M17.9 44.17l-1.2-.88a.21.21 0 0 1 .05-.3l1.95-1.47c.09-.07.21 0 .3 0l1.11.8c.07.1.11.24 0 .31l-1.91 1.59c-.09.07-.2.03-.3-.05z"/><path class="cls-8" d="M17.92 44l-1.14-.83a.2.2 0 0 1 0-.28l1.88-1.41a.24.24 0 0 1 .29 0l1.11.77a.19.19 0 0 1 0 .28l-1.86 1.56c-.09.06-.2.03-.28-.09z"/><path class="cls-7" d="M20 45.47l-1.2-.87a.21.21 0 0 1 .05-.3l2.35-1.94a.26.26 0 0 1 .3 0l1.11.81c.07.1.11.24 0 .31l-2.32 2c-.14.11-.22.08-.29-.01z"/><path class="cls-8" d="M20 45.35l-1.14-.83a.2.2 0 0 1 .05-.28l2.28-1.87a.24.24 0 0 1 .29 0l1.11.78a.2.2 0 0 1 0 .28l-2.34 1.97c-.09.06-.17.03-.25-.05z"/><path class="cls-7" d="M22 46.9l-1.22-.9a.21.21 0 0 1 0-.3l3.1-2.55a.24.24 0 0 1 .3 0l1.12.81c.06.1.11.24 0 .31L22.28 47c-.1 0-.18 0-.28-.1z"/><path class="cls-8" d="M22 46.78L20.86 46a.22.22 0 0 1 .05-.29l3-2.47a.23.23 0 0 1 .28 0l1.12.78a.19.19 0 0 1-.05.28l-3 2.53c-.07.06-.15.03-.26-.05z"/><path class="cls-7" d="M17.56 41.54l-1.2-.88a.21.21 0 0 1 .05-.3l1-.75a.24.24 0 0 1 .3 0l1.11.8c.07.1.12.24 0 .31l-.94.82c-.11.12-.19.08-.32 0z"/><path class="cls-8" d="M17.58 41.41l-1.14-.83a.2.2 0 0 1 0-.28l.91-.71a.24.24 0 0 1 .29 0l1.11.78a.19.19 0 0 1-.05.28l-.88.77c-.05.1-.12.07-.24-.01z"/><path class="cls-7" d="M19.12 40.23l-1.21-.87a.22.22 0 0 1 .05-.3l1-.76a.27.27 0 0 1 .3.06l1.11.8c.07.1.11.24 0 .31l-.93.81c-.12.07-.2.04-.32-.05z"/><path class="cls-8" d="M19.14 40.11L18 39.28a.19.19 0 0 1 .05-.28l.91-.72a.25.25 0 0 1 .28 0l1.12.77a.22.22 0 0 1-.05.29l-.89.77c-.09.11-.17.08-.28 0z"/><path class="cls-7" d="M20.71 39l-1.21-.9a.22.22 0 0 1 .05-.3l1-.75a.23.23 0 0 1 .29.05l1.12.81c.07.09.11.24 0 .31L21 39c-.09.1-.17.07-.29 0z"/><path class="cls-8" d="M20.72 38.86L19.59 38a.21.21 0 0 1 0-.29l.91-.71a.24.24 0 0 1 .29 0l1.11.77a.19.19 0 0 1 0 .28l-.9.85c-.08.1-.16.04-.28-.04z"/><path class="cls-7" d="M22.28 37.74l-1.2-.88a.21.21 0 0 1 .05-.3l1-.75a.24.24 0 0 1 .3 0l1.11.8c.07.1.11.24 0 .31l-.94.82c-.12.12-.2.08-.32 0z"/><path class="cls-8" d="M22.3 37.61l-1.14-.83a.21.21 0 0 1 .05-.28l.91-.71a.22.22 0 0 1 .28.05l1.12.77a.2.2 0 0 1-.05.28l-.89.77c-.09.06-.17.03-.28-.05z"/><path class="cls-7" d="M23.9 36.43l-1.2-.88a.22.22 0 0 1 .05-.3l1-.75a.24.24 0 0 1 .3 0l1.12.8c.06.1.11.24 0 .31l-.94.82c-.12.12-.23.08-.33 0z"/><path class="cls-8" d="M23.92 36.3l-1.13-.83a.2.2 0 0 1 0-.28l.91-.71a.23.23 0 0 1 .29.05l1.11.77a.19.19 0 0 1 0 .28l-.89.77c-.09.06-.21.03-.29-.05z"/><path class="cls-7" d="M25.55 35.27l-1.2-.88a.21.21 0 0 1 0-.3l1-.75a.24.24 0 0 1 .3 0l1.11.8c.07.1.12.24 0 .31l-.94.82c-.06.11-.14.08-.27 0z"/><path class="cls-8" d="M25.57 35.14l-1.14-.83a.2.2 0 0 1 .05-.28l.91-.72a.24.24 0 0 1 .28 0l1.12.77a.2.2 0 0 1-.05.29l-.89.77c-.09.11-.16.08-.28 0z"/><path class="cls-7" d="M27.08 34l-1.2-.88a.21.21 0 0 1 .05-.3l1-.75a.25.25 0 0 1 .3 0l1.11.8c.07.1.11.24 0 .31l-.93.82c-.13.14-.21.1-.33 0z"/><path class="cls-8" d="M27.1 33.89l-1.1-.83a.2.2 0 0 1 .05-.28l.91-.71a.23.23 0 0 1 .28 0l1.12.77a.22.22 0 0 1-.05.29l-.89.77c-.13.1-.21.1-.32-.01z"/><path class="cls-7" d="M28.6 32.74l-1.2-.88a.21.21 0 0 1 .05-.3l1-.75a.24.24 0 0 1 .3.05l1.11.8c.07.1.11.24 0 .31l-.94.82c-.12.07-.2.03-.32-.05z"/><path class="cls-8" d="M28.62 32.61l-1.14-.83a.2.2 0 0 1 .05-.28l.91-.71a.23.23 0 0 1 .28 0l1.12.78a.2.2 0 0 1-.05.28l-.89.77c-.09.1-.16.07-.28-.01z"/><path class="cls-7" d="M30.18 31.55L29 30.67a.21.21 0 0 1 .05-.3l1-.75a.24.24 0 0 1 .3.05l1.11.81c.07.09.11.24 0 .31l-.94.81c-.14.07-.22.04-.34-.05z"/><path class="cls-8" d="M30.2 31.42l-1.14-.83a.21.21 0 0 1 .05-.28l.89-.71a.23.23 0 0 1 .28 0l1.12.77a.2.2 0 0 1-.05.28l-.89.77c-.07.12-.14.09-.26 0z"/><path class="cls-7" d="M31.75 30.31l-1.21-.87a.22.22 0 0 1 .05-.3l1-.76c.09-.07.21 0 .3.05l1.11.81c.07.1.11.24 0 .31l-.93.81c-.07.07-.2.04-.32-.05z"/><path class="cls-8" d="M31.76 30.19l-1.13-.83a.21.21 0 0 1 0-.29l.91-.71a.24.24 0 0 1 .29.05l1.11.77a.19.19 0 0 1 0 .28l-.89.77c-.05.07-.17.04-.29-.04z"/><path class="cls-7" d="M33.35 29.09l-1.2-.88a.21.21 0 0 1 .05-.3l1-.75a.24.24 0 0 1 .3.05l1.11.8c.07.1.12.24 0 .31l-.94.82c-.11.07-.19.03-.32-.05z"/><path class="cls-8" d="M33.37 29l-1.13-.83a.19.19 0 0 1 0-.28l.91-.71a.23.23 0 0 1 .29.05l1.11.77a.2.2 0 0 1 0 .28l-.89.77c-.1.02-.17-.05-.29-.05z"/><path class="cls-7" d="M36.39 26.58l-1.2-.87a.21.21 0 0 1 .05-.3L36.87 24a.25.25 0 0 1 .3 0l1.11.8c.07.1.11.24 0 .31l-1.6 1.44c-.08.15-.16.12-.29.03z"/><path class="cls-8" d="M36.41 26.46l-1.14-.83a.22.22 0 0 1 0-.29L36.9 24a.23.23 0 0 1 .28 0l1.12.77a.22.22 0 0 1 0 .29l-1.6 1.44c-.1.07-.17.04-.29-.04z"/><path class="cls-7" d="M34.91 27.92L33.7 27a.23.23 0 0 1 0-.3l1-.75c.09-.07.21 0 .3.05l1.11.8c.07.1.11.24 0 .31l-.93.82c-.07.07-.18.07-.27-.01z"/><path class="cls-8" d="M34.93 27.79L33.79 27a.2.2 0 0 1 .05-.28l.91-.71A.22.22 0 0 1 35 26l1.12.77a.2.2 0 0 1 0 .28l-.89.77c-.11.08-.23.05-.3-.03z"/><path class="cls-7" d="M32.93 32.26l-1.2-.88a.21.21 0 0 1 .05-.3l1-.75a.24.24 0 0 1 .3.05l1.11.81c.07.09.11.24 0 .31l-.94.81c-.12.07-.2.04-.32-.05z"/><path class="cls-8" d="M33 32.13l-1.14-.82a.22.22 0 0 1 .05-.29l.91-.71a.23.23 0 0 1 .28.05l1.12.77a.2.2 0 0 1-.05.28l-.89.77c-.14.07-.21.04-.28-.05z"/><path class="cls-7" d="M34.48 31.08l-1.2-.88a.21.21 0 0 1 0-.3l1-.75a.24.24 0 0 1 .3.05l1.12.8c.06.1.11.24 0 .31l-.94.82c-.07.07-.15.03-.28-.05z"/><path class="cls-8" d="M34.5 31l-1.13-.83a.19.19 0 0 1 0-.28l.91-.71a.24.24 0 0 1 .29 0l1.11.78a.2.2 0 0 1 0 .28l-.89.77c-.09.05-.17-.01-.29-.01z"/><path class="cls-7" d="M36 29.86L34.82 29a.21.21 0 0 1 0-.3l1-.75a.24.24 0 0 1 .3.05l1.11.8c.07.1.11.24 0 .31l-.94.82c-.07.07-.15.01-.29-.07z"/><path class="cls-8" d="M36 29.73l-1.1-.83a.2.2 0 0 1 .05-.28l.91-.71a.23.23 0 0 1 .28 0l1.12.77a.22.22 0 0 1 0 .29l-.89.77c-.14.1-.22.07-.37-.01z"/><path class="cls-7" d="M37.45 28.66l-1.21-.88a.22.22 0 0 1 0-.3l1-.75c.09-.07.21 0 .3.05l1.11.81c.07.09.11.24 0 .3l-.93.82c-.07.07-.15.04-.27-.05z"/><path class="cls-8" d="M37.46 28.53l-1.13-.83a.19.19 0 0 1 .05-.28l.9-.71a.23.23 0 0 1 .29.05l1.12.77a.2.2 0 0 1 0 .28l-.89.77c-.14.07-.22.03-.34-.05z"/><path class="cls-7" d="M38.94 27.34l-1.21-.88a.22.22 0 0 1 .05-.3l1-.75a.24.24 0 0 1 .3.05l1.12.8c.06.1.11.24 0 .31l-.94.82c-.12.07-.2.03-.32-.05z"/><path class="cls-8" d="M39 27.21l-1.13-.83a.19.19 0 0 1 0-.28l.91-.71a.23.23 0 0 1 .29.05l1.11.77a.2.2 0 0 1 0 .28l-.89.77c-.14.06-.22.03-.29-.05z"/><path class="cls-7" d="M35 33.3l-1.21-.87a.22.22 0 0 1 0-.3l1-.76a.24.24 0 0 1 .3.05l1.12.8c.07.09.11.24 0 .31l-.93.82c-.09.07-.17.03-.28-.05z"/><path class="cls-8" d="M35 33.17l-1.14-.82a.19.19 0 0 1 0-.28l.91-.72a.22.22 0 0 1 .28 0l1.12.76a.19.19 0 0 1 0 .28l-.89.78c-.09.11-.16.08-.28 0z"/><path class="cls-7" d="M36.57 32.15l-1.21-.87a.21.21 0 0 1 0-.3l1-.76c.09-.07.21 0 .3.05l1.11.8c.07.1.12.24 0 .31l-.93.82c-.07.07-.15.04-.27-.05z"/><path class="cls-8" d="M36.59 32l-1.14-.82a.19.19 0 0 1 0-.28l.91-.72a.23.23 0 0 1 .28.05l1.16.77a.21.21 0 0 1 0 .29l-.89.77c-.13.08-.21.04-.32-.06z"/><path class="cls-7" d="M38.06 30.89L36.85 30a.21.21 0 0 1 0-.3l1-.76c.09-.07.21 0 .3.05l1.11.79c.07.1.12.24 0 .31l-.93.82c-.07.09-.15.09-.27-.02z"/><path class="cls-8" d="M38.08 30.76l-1.15-.82a.22.22 0 0 1 0-.29l.91-.71a.23.23 0 0 1 .28 0l1.12.77a.2.2 0 0 1 0 .28l-.89.77c-.08.11-.16.08-.27 0z"/><path class="cls-7" d="M39.65 29.62l-1.21-.88a.22.22 0 0 1 .05-.3l2-1.74c.09-.07.21 0 .3.05l1.11.81c.07.09.11.24 0 .31l-2 1.8c-.05.07-.13.03-.25-.05z"/><path class="cls-8" d="M39.66 29.49l-1.13-.83a.19.19 0 0 1 0-.28l2-1.7a.23.23 0 0 1 .28.05l1.12.77a.2.2 0 0 1 0 .28L40 29.54c-.14.06-.22.03-.34-.05z"/><path class="cls-7" d="M40.68 31.56l-1.21-.88a.21.21 0 0 1 .05-.29L42.36 28a.24.24 0 0 1 .3.05l1.11.8c.07.1.12.24 0 .31L41 31.61c-.12.07-.2.04-.32-.05z"/><path class="cls-8" d="M40.69 31.44l-1.13-.83a.21.21 0 0 1 0-.29L42.39 28a.22.22 0 0 1 .28.05l1.12.77a.19.19 0 0 1 0 .28L41 31.48c-.11.07-.19.04-.31-.04z"/><path class="cls-7" d="M23.93 48.31l-1.21-.86a.22.22 0 0 1 0-.3l.95-.77a.24.24 0 0 1 .3 0l1.13.79c.07.09.11.24 0 .31l-.93.82c-.03.12-.12.09-.24.01z"/><path class="cls-8" d="M24 48.18l-1.15-.81a.21.21 0 0 1 0-.29l.9-.72a.24.24 0 0 1 .29 0l1.12.76a.19.19 0 0 1 0 .28l-.88.79c-.14.1-.22.07-.28-.01z"/><path class="cls-7" d="M25.47 47l-1.22-.87a.21.21 0 0 1 .05-.3l.95-.76a.25.25 0 0 1 .3 0l1.12.78c.07.1.12.24 0 .31l-.92.83c-.08.16-.16.13-.28.01z"/><path class="cls-8" d="M25.48 46.91l-1.15-.81a.22.22 0 0 1 .05-.29l.9-.72a.23.23 0 0 1 .28 0l1.13.76a.2.2 0 0 1-.05.28l-.87.78c-.09.09-.17.09-.29 0z"/><path class="cls-7" d="M26.92 45.83L25.7 45a.21.21 0 0 1 .05-.3l.95-.77a.24.24 0 0 1 .3.07l1.12.79c.07.09.12.24 0 .31l-.92.82a.32.32 0 0 1-.28-.09z"/><path class="cls-8" d="M26.94 45.7l-1.15-.81a.21.21 0 0 1 0-.29l.9-.72a.23.23 0 0 1 .28 0l1.13.76a.19.19 0 0 1 0 .28l-.88.79c-.09.1-.17.07-.28-.01z"/><path class="cls-7" d="M28.35 44.56l-1.22-.86a.21.21 0 0 1 .05-.3l1.25-1a.24.24 0 0 1 .3.05l1.12.78c.07.1.12.24 0 .31l-1.2 1.06c-.1.07-.18.04-.3-.04z"/><path class="cls-8" d="M28.37 44.43l-1.15-.81a.21.21 0 0 1 0-.29l1.2-1a.23.23 0 0 1 .28 0l1.13.76a.2.2 0 0 1 0 .28l-1.18 1c-.09.17-.17.14-.28.06z"/><path class="cls-7" d="M25.71 43.86L24.5 43a.21.21 0 0 1 .05-.3l1-.76a.25.25 0 0 1 .3 0l1.11.8c.07.09.12.24 0 .31l-.93.82c-.12.13-.2.13-.32-.01z"/><path class="cls-8" d="M25.73 43.73l-1.14-.82a.19.19 0 0 1 0-.28l.91-.72a.23.23 0 0 1 .28.05l1.12.76a.19.19 0 0 1 0 .28l-.89.78c-.09.06-.17.03-.28-.05z"/><path class="cls-7" d="M27.21 42.6L26 41.73a.21.21 0 0 1 .05-.3l1-.76c.09-.07.21 0 .3 0l1.11.8c.07.1.12.24 0 .31l-.93.82c-.12.12-.2.09-.32 0z"/><path class="cls-8" d="M27.23 42.48l-1.14-.83a.2.2 0 0 1 0-.28l.91-.72a.23.23 0 0 1 .28.05l1.12.76a.21.21 0 0 1 0 .29l-.89.77c-.09.07-.17.04-.28-.04z"/><path class="cls-7" d="M28.67 41.41l-1.21-.87a.23.23 0 0 1 .05-.3l1-.76a.24.24 0 0 1 .3.05l1.12.8c.07.09.11.24 0 .3l-.93.83c-.12.07-.2.03-.33-.05z"/><path class="cls-8" d="M28.69 41.28l-1.14-.82a.19.19 0 0 1 0-.28l.91-.72a.23.23 0 0 1 .28 0l1.13.77a.2.2 0 0 1-.05.28l-.89.78c-.05.1-.12.07-.24-.01z"/><path class="cls-7" d="M30.16 40.2L29 39.33a.21.21 0 0 1 0-.33l1-.76c.09-.07.21 0 .3 0l1.11.79c.07.1.11.24 0 .31l-.93.82c-.12.15-.2.12-.32.04z"/><path class="cls-8" d="M30.18 40.07L29 39.25a.22.22 0 0 1 0-.29l.9-.71a.24.24 0 0 1 .29 0l1.12.77a.21.21 0 0 1-.05.28l-.88.77c-.01.11-.09.08-.2 0z"/><path class="cls-7" d="M31.69 38.93l-1.21-.87a.21.21 0 0 1 .05-.3l.95-.75a.24.24 0 0 1 .3 0l1.12.8c.07.1.11.24 0 .31L32 39c-.11.05-.19 0-.31-.07z"/><path class="cls-8" d="M31.7 38.81L30.56 38a.21.21 0 0 1 .05-.28l.9-.72a.26.26 0 0 1 .29.05l1.12.76a.22.22 0 0 1-.05.29l-.88.77c-.09.05-.17.02-.29-.06z"/><path class="cls-7" d="M33.19 37.68L32 36.81a.22.22 0 0 1 0-.3l1-.76a.24.24 0 0 1 .3 0l1.12.79c.07.1.11.24 0 .31l-.94.82c-.09.12-.17.09-.29.01z"/><path class="cls-8" d="M33.2 37.55l-1.14-.82a.22.22 0 0 1 0-.29l.9-.71a.24.24 0 0 1 .29 0l1.12.77a.21.21 0 0 1-.05.28l-.88.78c-.04.1-.12.07-.24-.01z"/><path class="cls-7" d="M34.69 36.47l-1.21-.87a.22.22 0 0 1 .05-.3l1-.76a.24.24 0 0 1 .3.05l1.12.8c.07.1.11.24 0 .31l-.93.82c-.12.07-.2.04-.33-.05z"/><path class="cls-8" d="M34.71 36.35l-1.14-.83a.2.2 0 0 1 0-.28l.91-.72a.23.23 0 0 1 .28 0l1.12.76a.21.21 0 0 1 0 .29l-.89.77c-.09.12-.16.09-.28.01z"/><path class="cls-7" d="M36.17 35.25L35 34.38a.21.21 0 0 1 0-.3l1-.76c.09-.07.21 0 .3 0l1.11.8c.07.09.12.24 0 .31l-.93.82c-.11.12-.19.08-.31 0z"/><path class="cls-8" d="M36.19 35.12L35 34.3a.2.2 0 0 1 .05-.28l.95-.72a.22.22 0 0 1 .28.05l1.12.76a.19.19 0 0 1 0 .28l-.88.78c-.14.06-.22.03-.33-.05z"/><path class="cls-7" d="M37.67 34l-1.21-.87a.21.21 0 0 1 0-.3l1-.76c.09-.07.21 0 .3 0l1.11.8c.07.1.12.24 0 .31L38 34c-.13.11-.21.08-.33 0z"/><path class="cls-8" d="M37.69 33.86L36.54 33a.2.2 0 0 1 .05-.28l.9-.72a.24.24 0 0 1 .29.05l1.12.76a.2.2 0 0 1 0 .29l-.88.77c-.14.13-.22.07-.33-.01z"/><path class="cls-7" d="M39.18 32.79L38 31.92a.21.21 0 0 1 .05-.3l.95-.76a.24.24 0 0 1 .3.05l1.12.8c.07.09.11.23 0 .3l-.93.83c-.11.07-.19.03-.31-.05z"/><path class="cls-8" d="M39.19 32.66l-1.14-.82a.22.22 0 0 1 .05-.29l.9-.71a.24.24 0 0 1 .29 0l1.12.77a.2.2 0 0 1 0 .28l-.88.78c-.14.1-.22.07-.34-.01z"/><path class="cls-7" d="M15.89 42.74l-1.2-.88a.21.21 0 0 1 .05-.3l1-.75a.24.24 0 0 1 .3 0l1.11.8c.07.1.11.24 0 .31l-.94.82c-.12.12-.21.08-.32 0z"/><path class="cls-8" d="M15.91 42.61l-1.14-.83a.2.2 0 0 1 .05-.28l.91-.71a.22.22 0 0 1 .28.05l1.12.77a.21.21 0 0 1-.05.28l-.89.77c-.09.06-.19.03-.28-.05z"/><path class="cls-7" d="M30 43l-1.09-.76A.22.22 0 0 1 29 42l7.39-6a.25.25 0 0 1 .3.07l1 .67c.07.1.1.25 0 .31l-7.36 6.1c-.1 0-.18-.04-.33-.15z"/><path class="cls-8" d="M30.06 42.89l-1-.71a.2.2 0 0 1 .07-.28l7.33-6a.23.23 0 0 1 .28.07l1 .64a.19.19 0 0 1-.06.27L30.34 43c-.1 0-.17 0-.28-.11z"/><path class="cls-7" d="M38 36.5l-1.21-.86a.21.21 0 0 1 0-.3l1.44-1.13c.09-.07.21 0 .3 0l1.12.79c.07.1.11.24 0 .31l-1.42 1.2c-.04.11-.12.07-.23-.01z"/><path class="cls-8" d="M38 36.37l-1.15-.81a.2.2 0 0 1 0-.28l1.39-1.09a.23.23 0 0 1 .28 0l1.18.81a.21.21 0 0 1-.05.28l-1.37 1.15c-.09.05-.16.02-.28-.06z"/><path class="cls-7" d="M39.91 34.87L38.7 34a.21.21 0 0 1 0-.3l1-.75a.24.24 0 0 1 .3 0l1.12.8c.07.1.11.24 0 .31l-.93.82c-.08.12-.19.12-.28-.01z"/><path class="cls-8" d="M39.92 34.75l-1.14-.83a.21.21 0 0 1 0-.28l.9-.72A.25.25 0 0 1 40 33l1.12.76a.22.22 0 0 1 0 .29l-.88.77c-.12.04-.24.01-.32-.07z"/><path class="cls-7" d="M41.39 33.68l-1.21-.87a.21.21 0 0 1 0-.3l1-.76c.09-.07.21 0 .3.05l1.11.79c.07.1.11.24 0 .31l-.93.83c-.07.07-.15.03-.27-.05z"/><path class="cls-8" d="M41.41 33.55l-1.15-.82a.22.22 0 0 1 .05-.29l.9-.71a.24.24 0 0 1 .29 0l1.12.77a.2.2 0 0 1 0 .28l-.88.78c-.14.1-.22.07-.33-.01z"/><path class="cls-7" d="M42.8 32.46l-1.21-.87a.21.21 0 0 1 0-.3l1-.75a.26.26 0 0 1 .3 0l1.11.8c.07.1.12.24 0 .31l-.93.82c-.07.11-.15.08-.27-.01z"/><path class="cls-8" d="M42.82 32.34l-1.14-.82a.21.21 0 0 1 0-.29l.91-.71a.23.23 0 0 1 .28 0l1.12.77a.2.2 0 0 1 0 .28l-.89.77c-.1.11-.17.08-.28 0z"/><path class="cls-7" d="M44.22 31.25L43 30.38a.22.22 0 0 1 .05-.3l1-.76a.24.24 0 0 1 .3.05l1.12.8c.07.09.11.24 0 .31l-.93.82c-.11.07-.19.03-.32-.05z"/><path class="cls-8" d="M44.24 31.12l-1.14-.82a.19.19 0 0 1 0-.28l.91-.72a.22.22 0 0 1 .28.05l1.12.76a.19.19 0 0 1 0 .28l-.89.78c-.09.06-.16.03-.28-.05z"/><path class="cls-7" d="M14.25 41.45l-.19-.14c-.09-.07-.11-.17 0-.24l1.86-1.38c.1-.06.15-.1.24 0l.25.14c.12.13.08.17 0 .25l-1.91 1.39c-.12.06-.1.04-.25-.02z"/><path class="cls-8" d="M14.3 41.38l-.17-.12c-.1-.06-.16-.13-.07-.2l1.87-1.39c.09-.06.13-.08.21 0l.25.14c.07.09 0 .1-.1.22l-1.76 1.33c-.09.05-.07.08-.23.02z"/><path class="cls-7" d="M16.57 39.69l-.19-.13c-.09-.07-.12-.17 0-.24l1.14-.93c.1-.07.15-.11.23 0l.26.14c.12.13.08.17 0 .25l-1.18 1c-.13-.01-.11-.02-.26-.09z"/><path class="cls-8" d="M16.62 39.63l-.18-.12c-.09-.06-.15-.13-.06-.2l1.15-.94a.17.17 0 0 1 .23 0l.23.14c.07.1 0 .11-.1.23l-1 .87c-.14.05-.11.08-.27.02z"/><path class="cls-7" d="M18.13 38.45l-.2-.14c-.08-.07-.11-.17 0-.24l1.15-.92c.09-.07.15-.11.23 0l.26.15c.12.12.08.17 0 .25l-1.19 1c-.12-.02-.11-.04-.25-.1z"/><path class="cls-8" d="M18.18 38.38l-.18-.12c-.1-.06-.15-.13-.06-.2l1.15-.93a.18.18 0 0 1 .24 0l.23.15c.06.09 0 .1-.11.22l-1.05.87c-.09.04-.07.08-.22.01z"/><path class="cls-7" d="M19.71 37.16l-.2-.13c-.08-.07-.11-.17 0-.24l1.14-.92c.1-.07.16-.11.24 0l.26.14c.12.13.08.17 0 .25l-1.19 1c-.12-.02-.11-.03-.25-.1z"/><path class="cls-8" d="M19.76 37.1l-.18-.1c-.1-.07-.15-.14-.06-.2l1.15-.93c.1-.07.14-.08.24 0l.23.15c.06.09 0 .11-.11.22l-1.03.82c-.11.07-.09.1-.24.04z"/><path class="cls-7" d="M21.25 35.9l-.2-.13c-.08-.08-.11-.18 0-.25l1.14-.92c.1-.07.16-.11.24 0l.26.15c.12.12.08.17 0 .25l-1.19 1c-.12 0-.11 0-.25-.1z"/><path class="cls-8" d="M21.3 35.83l-.18-.11c-.1-.07-.15-.14-.06-.21l1.15-.93a.2.2 0 0 1 .24 0l.23.15c.06.09 0 .1-.11.22l-1.05.87c-.09.04-.07.08-.22.01z"/><path class="cls-7" d="M22.84 34.63l-.19-.13c-.09-.07-.12-.18 0-.24l1.15-.93c.1-.07.15-.11.23 0l.26.15c.12.12.08.17 0 .25l-1.19 1c-.1-.02-.1-.03-.26-.1z"/><path class="cls-8" d="M22.89 34.56l-.17-.11c-.1-.07-.16-.14-.07-.21l1.16-.93a.18.18 0 0 1 .23 0l.23.15c.07.09 0 .1-.1.22l-1.05.87c-.12.04-.07.08-.23.01z"/><path class="cls-7" d="M24.51 33.36l-.2-.13c-.08-.07-.11-.17 0-.24l1.15-.93c.09-.06.15-.1.23 0l.26.14c.12.13.08.17 0 .25l-1.19 1c-.12-.01-.11-.02-.25-.09z"/><path class="cls-8" d="M24.56 33.29l-.18-.11c-.1-.07-.15-.14-.06-.2l1.16-.98a.18.18 0 0 1 .23 0l.23.15c.06.09 0 .1-.11.22l-1 .87c-.14.09-.12.12-.27.05z"/><path class="cls-7" d="M26.1 32.07l-.2-.13c-.09-.08-.11-.18 0-.25l1.1-.92c.1-.07.15-.11.23 0l.26.15c.12.12.08.17 0 .25l-1.18 1c-.09-.02-.07-.03-.21-.1z"/><path class="cls-8" d="M26.14 32l-.14-.12c-.1-.06-.16-.13-.07-.2l1.16-.93a.17.17 0 0 1 .23 0l.23.15c.07.09 0 .1-.1.22l-1.08.88c-.09 0-.07.07-.23 0z"/><path class="cls-7" d="M27.67 30.75l-.19-.13c-.09-.07-.11-.18 0-.24l1.16-.91c.1-.06.15-.1.23 0l.26.15c.12.13.08.17 0 .25l-1.2.94c-.13.03-.12.02-.26-.06z"/><path class="cls-8" d="M27.72 30.69l-.17-.12c-.1-.07-.15-.14-.06-.2l1.17-.92a.17.17 0 0 1 .23 0l.23.15c.06.09 0 .1-.11.22l-1.01.84c-.15.06-.13.1-.28.03z"/><path class="cls-7" d="M29.34 29.55l-.2-.13c-.08-.07-.11-.18 0-.24l1.15-.93c.09-.07.15-.11.23 0l.26.15c.12.12.08.17 0 .25l-1.19 1c-.12-.02-.11-.03-.25-.1z"/><path class="cls-8" d="M29.39 29.48l-.18-.11c-.09-.07-.15-.14-.06-.21l1.16-.93a.18.18 0 0 1 .23 0l.23.15c.06.09 0 .1-.11.22l-1.05.87c-.09.04-.07.08-.22.01z"/><path class="cls-7" d="M30.87 28.26l-.2-.13c-.08-.07-.11-.17 0-.24l1.14-.89c.09-.07.15-.11.23 0l.26.14c.12.13.08.17 0 .25l-1.19 1c-.11-.04-.11-.06-.24-.13z"/><path class="cls-8" d="M30.92 28.2l-.18-.12c-.1-.07-.15-.14-.06-.2l1.15-.88c.1-.07.14-.08.24 0l.23.14c.06.1 0 .11-.11.22l-1 .87c-.14 0-.12.03-.27-.03z"/><path class="cls-7" d="M32.52 27l-.19-.13c-.09-.07-.12-.18 0-.25l1.15-.92c.09-.07.15-.11.23 0l.26.15c.12.12.08.17 0 .25l-1.19 1c-.13 0-.11-.01-.26-.1z"/><path class="cls-8" d="M32.57 27l-.18-.11c-.09-.07-.15-.14-.06-.21l1.16-.93a.18.18 0 0 1 .23 0l.23.15c.06.09 0 .1-.11.22l-1 .87c-.14.01-.11.01-.27.01z"/><path class="cls-7" d="M34.05 25.76l-.2-.13c-.09-.07-.11-.17 0-.24l1.15-.93c.1-.06.15-.1.24 0l.25.14c.12.13.08.17 0 .25l-1.18 1c-.13-.01-.12-.02-.26-.09z"/><path class="cls-8" d="M34.09 25.69l-.17-.11c-.1-.07-.15-.14-.06-.2l1.14-.94a.18.18 0 0 1 .23 0l.23.15c.07.09 0 .1-.1.22l-1 .87c-.13.05-.11.08-.27.01z"/><path class="cls-7" d="M35.54 24.5l-.19-.14c-.09-.07-.12-.17 0-.24l.8-.62c.09-.07.15-.11.23 0l.26.15c.12.12.08.16 0 .24l-.84.67c-.13.02-.11 0-.26-.06z"/><path class="cls-8" d="M35.59 24.43l-.17-.12c-.1-.06-.16-.13-.07-.2l.81-.63a.17.17 0 0 1 .23 0l.23.15c.06.09 0 .1-.11.22l-.69.57c-.09.04-.07.08-.23.01z"/></g></svg>