<svg id="Layer_1" data-name="Layer 1" width="60" xmlns="http://www.w3.org/2000/svg" viewBox="0 0 24.71 20.81"><title>linktree</title><path d="M9.19.56a1.1,1.1,0,0,0-1.92,0l-7.16,13A1,1,0,0,0,1,15H5.86V19.9a.91.91,0,0,0,.91.91H9.61a.91.91,0,0,0,.91-.91V15H9.19a1.08,1.08,0,0,1-1.08-.92,1.12,1.12,0,0,1,.08-.5l4-7.25Z"/><path d="M15.52.56a1.1,1.1,0,0,1,1.92,0l7.17,13A1,1,0,0,1,23.69,15H18.94V19.9a.92.92,0,0,1-.92.91H15a.91.91,0,0,1-.91-.91V15h1.33a1.08,1.08,0,0,0,1.08-.92,1.12,1.12,0,0,0-.08-.5l-4-7.25Z"/></svg>
