<svg data-name="Layer 1" xmlns="http://www.w3.org/2000/svg" viewBox="0 0 150.19 140.52"><path d="M112.49 84.88c.84.67 2 1.18 2.6.37s.46-2.92.42-3.83c-.07-1.72-.5-5.29-2.33-6.15-4.72-2.23-1.83 8.09-.69 9.61zM71.35 88.49c.59-.07 1.27.05 1.84-.07 1.32-.28.68.18 1.14-.91s.07-3-.15-4.13c-.3-1.56-.83-4.49-2.82-4.71s-2.55 2-2.58 3.52c-.04 2.5 1.08 4.41 2.57 6.3zM115.78 123.45l-11.22-2c-1.15-.21-4.14-.18-5.07-.92-.37-.29-.33-.72-.46-1.27-2-8.55-3.47-17.29-5.2-25.91l-1.78-8.85z"/><path d="M128.66 74.29l12.08-4.65a9.91 9.91 0 0 0 3.54-1.81 20.45 20.45 0 0 0 3.6-4.9 17.21 17.21 0 0 0 .58-16.15 29.73 29.73 0 0 0-8.54-9.92c-1.75-1.39-3.39-2.59-2 0 1.29 2.46 3.06 6 2.21 8.83-1.37 4.59-8.91 2.07-11.68.3-6.7-4.29-4.77-14.5-6.26-21.2-3.12-14.03-17.14-19.12-29.74-22.17C81.68.01 68.23-2.22 58.25 4.11a29.52 29.52 0 0 0-6.88 6.41c-1.5 1.8-2.93 3.93-5 5.18-1.61 1-3.56 1.13-5.35 1.63a50.69 50.69 0 0 0-10.51 4.18A51.58 51.58 0 0 0 14 35.67C4.39 48.2.28 64.26 0 79.86c-.12 7 .94 14.56 4.67 20.65 1.67 2.74 4.15 5.44 7.25 6.55 2.59.93 5.31-.71 7.54-2a52.47 52.47 0 0 0 5.16-3.3l3.47 28.35c.06.54 0 2.82.39 3.21.16.15.95.05 1.16.08 2.78.43 5.71.42 8.52.63l68.88 5 20.29 1.48m-94.43-9.9l-6.58-34.82c-3.07 2.61-7.83 7.2-12.06 7.39-3.79.18-6.07-4.77-7.49-7.55a28.34 28.34 0 0 1-3.18-8.3c-.64-3.69-2.36-14 2.34-15.93 2.21-.9 5.44.64 7.43 1.49a62.06 62.06 0 0 1 7 3.6c8 4.71 19.47 10 28.43 4.9 3.58-2 3.43-5.84 3.07-9.55a86.5 86.5 0 0 0-3.43-15.82 264 264 0 0 0-9-25.78 175.65 175.65 0 0 0 32.78 24.7c9.18 5.38 19.07 10 29.59 11.93 9.12 1.72 18.68 3.38 28 3.21 1.77 0 4.47.12 6-1.06l-8 2.52c-1.62.51-1.4.19-1.63 1.52-.71 4.16-.18 8.94-.26 13.14l-.82 41-.21 10.59" fill="#181a1b"/></svg>