<svg xmlns="http://www.w3.org/2000/svg" width="60" viewBox="0 0 60 41">
<path d="M15.6002418,26.7137756 C20.6576579,23.2794905 26.3897466,19.3867961 26.3897466,11.9963041 C26.3897466,4.93258907 21.0252132,0 13.3443261,0 C4.23723246,0 0.557409573,7.50172129 0.405329059,7.82125855 L0,8.67160281 L5.6778915,12.4882796 L6.25270986,11.4516757 C6.27635953,11.4085661 8.67253091,7.17724782 12.9688875,7.17724782 C16.3911918,7.17724782 18.6904652,9.26526421 18.6904652,12.3731014 C18.6904652,15.7968559 15.2763727,18.1744632 11.3239216,20.9268933 C6.08059282,24.5783716 0.137956406,28.7172183 0.137956406,36.7599481 C0.137956406,37.637277 0.22762807,38.61333 0.419453167,39.8325736 L0.564635861,40.753012 L26.979346,40.753012 L26.979346,33.9502579 L8.3529319,33.9502579 C9.03483071,31.1731468 12.1063315,29.0864467 15.6002418,26.7137756"></path><path d="M47.1541962,23.8850507 L37.0642882,23.8850507 L47.1541962,11.2729242 L47.1541962,23.8850507 Z M54.4868206,23.8850507 L54.4868206,1.07894737 L46.6119456,1.07894737 L28.9305302,23.7466403 L28.9285714,23.7466403 L28.9285714,30.2015996 L31.3884497,30.2015996 L31.3884497,30.1893395 L47.1541962,30.1893395 L47.1541962,40.4020292 L54.4868206,40.4020292 L54.4868206,30.1893395 L59.4578313,30.1893395 L59.4578313,23.8850507 L54.4868206,23.8850507 Z"></path>
</svg>
