<svg version="1.1" width="225" xmlns="http://www.w3.org/2000/svg" xmlns:xlink="http://www.w3.org/1999/xlink" x="0px" y="0px" viewBox="0 0 1024.08 224.16" xml:space="preserve">
<g fill="#000000">
<path d="M0,5.04C0.29,4.3,0.8,4.09,1.61,4.09c26.91,0.03,53.83,0.03,80.74,0.05c1.1,0,2.32-0.35,3.25,0.7
	c0.16,0.18,0.61,0.11,0.93,0.11c2.16,0.05,4.32,0.05,6.48,0.13c0.86,0.03,1.86-0.27,2.49,0.72c0.1,0.15,0.52,0.12,0.8,0.13
	c1.16,0.05,2.32,0.05,3.48,0.13c0.4,0.03,0.8,0.24,1.18,0.4c0.34,0.14,0.64,0.38,0.98,0.46c0.88,0.21,2.01-0.34,2.59,0.85
	c0.03,0.06,0.22,0.05,0.34,0.08c1.7,0.39,3.49,0.58,5.07,1.25c1.13,0.48,2.62,0.48,3.35,1.77c0.02,0.03,0.06,0.06,0.09,0.07
	c1.09,0.36,2.19,0.68,3.26,1.09c0.44,0.17,0.77,0.74,1.21,0.81c1.32,0.22,2.17,1.2,3.24,1.82c0.82,0.47,1.7,0.82,2.49,1.33
	c0.63,0.41,1.16,0.99,1.72,1.5c0.13,0.12,0.22,0.37,0.36,0.4c1.2,0.22,1.89,1.02,2.63,1.92c0.71,0.86,1.81,1.37,2.65,2.14
	c0.79,0.73,1.46,1.59,2.19,2.38c0.54,0.58,1.15,1.1,1.64,1.71c0.51,0.65,0.89,1.39,1.37,2.07c0.43,0.62,0.91,1.2,1.36,1.81
	c0.52,0.7,1.02,1.41,1.54,2.11c0.25,0.34,0.52,0.68,0.79,1.01c0.05,0.06,0.2,0.1,0.19,0.12c-0.2,1.16,0.87,1.81,1.13,2.8
	c0.09,0.35,0.42,0.65,0.65,0.96c0.04,0.06,0.18,0.11,0.17,0.13c-0.38,1.41,1.06,2.09,1.3,3.31c0.27,1.35,1,2.61,1.5,3.92
	c0.15,0.4,0.17,0.86,0.28,1.28c0.25,0.91-0.29,2.1,0.94,2.71c0.13,0.07,0.09,0.52,0.1,0.8c0.04,1.16,0.02,2.32,0.14,3.47
	c0.06,0.53,0.4,1.02,0.58,1.55c0.11,0.33,0.21,0.68,0.21,1.02c0.01,4.48,0.02,8.96-0.02,13.44c0,0.46-0.35,0.91-0.52,1.36
	c-0.11,0.28-0.24,0.58-0.26,0.87c-0.07,1-0.03,2-0.15,2.99c-0.05,0.44-0.38,0.84-0.59,1.26c-0.07,0.13-0.22,0.23-0.26,0.37
	c-0.38,1.5-0.56,3.08-1.16,4.48c-0.49,1.16-0.53,2.59-1.72,3.43c-0.18,0.13-0.24,0.5-0.25,0.77c-0.06,1.34-0.74,2.32-1.71,3.14
	c-0.03,0.02-0.08,0.06-0.08,0.08c0.2,1.17-0.8,1.78-1.29,2.59c-0.71,1.18-1.69,2.19-2.55,3.27c-0.13,0.17-0.3,0.35-0.35,0.55
	c-0.23,1.05-0.98,1.63-1.75,2.28c-0.84,0.7-1.53,1.59-2.31,2.36c-0.55,0.54-1.36,0.92-1.71,1.56c-0.79,1.45-2.67,1.44-3.52,2.89
	c-0.4,0.68-1.6,0.87-2.4,1.35c-0.8,0.48-1.55,1.06-2.34,1.56c-0.25,0.16-0.62,0.14-0.89,0.28c-0.38,0.2-0.71,0.48-1.07,0.71
	c-0.18,0.12-0.42,0.33-0.57,0.29c-1.09-0.3-1.47,0.74-2.17,1.15c-0.05,0.03,0.11,0.66,0.25,0.7c0.5,0.12,1.03,0.09,1.55,0.14
	c0.68,0.07,1.5-0.15,1.81,0.79c0.03,0.08,0.19,0.14,0.3,0.18c1.11,0.37,2.45,0.47,3.26,1.18c0.85,0.74,2.33,0.31,2.72,1.66
	c0.02,0.06,0.11,0.12,0.17,0.15c0.97,0.39,1.99,0.7,2.9,1.2c0.68,0.37,1.22,0.99,1.84,1.48c0.2,0.16,0.43,0.28,0.67,0.38
	c1.37,0.57,2.39,1.54,3.24,2.74c0.31,0.44,0.83,0.74,1.25,1.11c1.19,1.06,2.43,2.09,3.56,3.21c0.49,0.49,0.65,1.39,1.2,1.73
	c1.27,0.8,1.6,2.25,2.55,3.27c0.63,0.68,1.5,1.26,1.62,2.49c0.08,0.85,0.98,1.62,1.5,2.44c0.12,0.18,0.22,0.39,0.26,0.59
	c0.1,0.57-0.01,1.24,0.82,1.39c0.1,0.02,0.22,0.24,0.25,0.38c0.14,0.75,0.48,1.38,0.83,2.06c0.65,1.28,0.81,2.81,1.24,4.21
	c0.16,0.51,0.52,0.96,0.79,1.44c0.05,0.1,0.15,0.2,0.15,0.3c-0.14,2.35,1.43,4.41,1.09,6.84c-0.15,1.08-0.45,2.39,0.71,3.31
	c0.17,0.14,0.09,0.61,0.09,0.93c0.01,2.52,0.03,5.04,0.01,7.56c-0.01,0.87,0.26,1.83-0.68,2.5c-0.2,0.14-0.14,0.68-0.15,1.03
	c-0.05,1.56-0.02,3.12-0.15,4.67c-0.05,0.6-0.47,1.16-0.64,1.76c-0.14,0.48-0.16,1-0.23,1.51c-0.13,0.93,0.28,2.04-0.87,2.65
	c-0.07,0.04-0.08,0.21-0.11,0.33c-0.4,1.53-0.59,3.15-1.25,4.56c-0.49,1.05-0.36,2.47-1.63,3.15c-0.16,0.08-0.09,0.52-0.21,0.76
	c-0.2,0.4-0.46,0.77-0.7,1.16c-0.04,0.06-0.14,0.09-0.16,0.15c-0.38,0.99-0.7,2.01-1.14,2.97c-0.3,0.65-0.75,1.23-1.14,1.84
	c-0.6,0.92-1.16,1.87-1.81,2.75c-0.55,0.75-1.23,1.4-1.8,2.13c-0.45,0.58-0.8,1.23-1.24,1.81c-0.29,0.38-0.67,0.7-1.04,1.02
	c-0.91,0.82-1.86,1.59-2.73,2.44c-0.48,0.47-0.78,1.11-1.25,1.58c-0.48,0.48-1.1,0.82-1.62,1.27c-0.25,0.21-0.36,0.58-0.61,0.77
	c-1.03,0.77-2.09,1.49-3.14,2.24c-0.88,0.63-1.72,1.32-2.65,1.87c-0.79,0.47-2.04,0.54-2.43,1.19c-0.63,1.06-2.2,0.41-2.51,1.69
	c-0.01,0.06-0.1,0.13-0.17,0.15c-1.07,0.39-2.17,0.72-3.2,1.19c-0.96,0.43-1.85,1.01-2.77,1.53c-0.1,0.06-0.17,0.19-0.27,0.22
	c-1.42,0.38-2.83,0.77-4.26,1.11c-0.84,0.2-1.84-0.21-2.45,0.82c-0.13,0.22-0.83,0.08-1.26,0.16c-0.67,0.12-1.48-0.26-1.91,0.75
	c-0.12,0.28-1.03,0.2-1.57,0.32c-4.05,0.88-8.22,0.73-12.27,1.32c-2.87,0.42-5.69,0.42-8.52,0.43c-27.23,0.05-54.47,0.03-81.7,0.03
	c-0.77,0-1.55,0.1-1.76-0.93C0,147.6,0,76.32,0,5.04z M47.18,180.03c0.55,0,0.99,0,1.42,0c9.44,0,18.87,0.01,28.31,0
	c2.28,0,4.56-0.05,6.84-0.09c0.35-0.01,0.91,0.01,1.01-0.19c0.46-0.84,1.22-0.6,1.89-0.69c0.67-0.08,1.76,0.1,1.95-0.24
	c0.73-1.29,2.41-0.49,3.1-1.63c2.1,0.15,3.11-2,5-2.37c0.53-0.1,1.02-0.65,1.41-1.09c0.75-0.83,1.24-2.07,2.15-2.53
	c1.57-0.79,1.59-2.55,2.73-3.54c0.4-0.35,0.86-0.77,1.01-1.25c0.28-0.93,0.47-1.83,0.93-2.76c0.61-1.26,0.4-2.85,0.97-4.33
	c0.56-1.47,0.26-3.32,0.13-4.99c-0.12-1.6,0.43-3.21-0.74-4.82c-0.7-0.97,0.23-2.79-1.1-3.84c0.39-1.48-1.1-2.17-1.49-3.37
	c-0.43-1.31-1.9-2.24-2.62-3.51c-0.82-1.46-2.41-1.8-3.49-2.86c-0.63-0.62-1.57-0.89-2.3-1.42c-1.04-0.75-1.87-1.88-3.39-1.63
	c-0.14,0.02-0.4-0.02-0.44-0.11c-0.47-1.1-1.46-0.68-2.27-0.81c-0.31-0.05-0.84-0.02-0.9-0.17c-0.37-1.02-1.23-0.68-1.92-0.74
	c-0.99-0.09-2.33,0.28-2.92-0.23c-1.13-1-2.31-0.74-3.46-0.75c-10.28-0.05-20.55-0.04-30.83-0.04c-0.3,0-0.6,0.07-0.98,0.12
	C47.18,146.77,47.18,163.31,47.18,180.03z M47.09,67.36c0,7.04,0,14.07,0,21.11c0,0.4-0.03,0.81,0.03,1.2
	c0.12,0.77,0.43,1.23,1.4,1.22c8.11-0.05,16.23-0.03,24.34-0.03c0.35,0,0.71-0.05,1.05-0.14c0.74-0.19,1.45-0.54,2.19-0.6
	c1.47-0.12,2.95-0.09,4.43-0.14c0.36-0.01,0.91,0.04,1.03-0.15c0.68-1.05,1.74-0.67,2.65-0.83c0.19-0.03,0.51-0.03,0.56-0.14
	c0.58-1.3,2.03-1.1,3.02-1.58c2.1-1.02,3.98-2.19,5.49-3.97c0.36-0.43,0.77-0.83,1.19-1.2c1.12-0.98,2.25-1.94,2.65-3.47
	c0.06-0.21,0.2-0.57,0.3-0.57c0.84-0.01,0.64-0.66,0.73-1.12c0.06-0.31-0.03-0.82,0.13-0.91c1.14-0.65,0.69-1.75,0.84-2.68
	c0.07-0.42,0.12-0.85,0.26-1.25c0.17-0.5,0.55-0.97,0.62-1.48c0.11-0.83-0.05-1.69,0.07-2.51c0.45-2.99-0.66-5.77-1.03-8.65
	c-1.14-0.67-0.76-1.9-1.06-2.88c-0.02-0.07-0.08-0.14-0.12-0.2c-0.65-0.94-1.25-1.91-1.96-2.79c-0.72-0.89-1.49-1.75-2.34-2.5
	c-0.62-0.55-1.53-0.78-2.11-1.35c-0.91-0.89-1.7-1.86-3.12-1.83c-0.06,0-0.15-0.07-0.19-0.13c-0.65-1.17-2.05-0.92-3.02-1.58
	c-0.97-0.65-2.32-0.81-3.53-1c-2.57-0.39-5.16-0.91-7.75-0.95c-8.23-0.12-16.47-0.05-24.7-0.06c-2.05,0-2.06,0-2.06,2.05
	C47.09,53.28,47.09,60.32,47.09,67.36z"/>
<path d="M246.24,224.16c-0.71-0.07-1.43-0.11-2.14-0.2c-0.78-0.1-1.7,0.22-2.2-0.77c-0.08-0.15-0.51-0.15-0.79-0.16
	c-1.12-0.05-2.24-0.06-3.36-0.12c-0.64-0.03-1.35,0.15-1.77-0.67c-0.11-0.21-0.74-0.13-1.12-0.21c-1.32-0.29-2.87,0.5-3.98-0.9
	c-0.17-0.21-0.77-0.07-1.16-0.1c-0.64-0.06-1.41,0.17-1.67-0.75c-0.02-0.08-0.18-0.15-0.29-0.18c-1.44-0.37-2.97-0.56-4.32-1.15
	c-1.19-0.52-2.73-0.44-3.51-1.79c-0.02-0.03-0.06-0.06-0.09-0.07c-1-0.37-2.01-0.7-2.99-1.11c-0.46-0.19-0.84-0.58-1.3-0.79
	c-0.97-0.45-2.02-0.76-2.95-1.29c-1.56-0.9-3.07-1.89-4.56-2.9c-0.74-0.5-1.4-1.14-2.1-1.7c-0.12-0.09-0.29-0.17-0.43-0.16
	c-1.21,0.14-1.52-1.12-2.38-1.55c-0.72-0.36-1.33-0.98-1.95-1.52c-1.03-0.89-2.04-1.82-3.06-2.73c-0.87-0.78-1.77-1.53-2.6-2.35
	c-0.5-0.49-0.89-1.09-1.35-1.62c-0.36-0.42-0.69-0.92-1.15-1.21c-1.47-0.93-1.94-2.64-3.05-3.81c-0.82-0.87-1.64-1.65-2-2.86
	c-0.14-0.47-0.71-0.79-1-1.24c-0.67-1.02-1.15-2.22-1.98-3.08c-1.01-1.05-1.18-2.66-2.06-3.46c-0.96-0.87-0.18-2.44-1.69-2.91
	c-0.48-0.15-0.71-1.19-0.97-1.86c-0.42-1.06-0.76-2.14-1.17-3.21c-0.12-0.33-0.33-0.63-0.52-0.93c-0.08-0.13-0.26-0.21-0.3-0.35
	c-0.4-1.41-0.79-2.82-1.15-4.23c-0.14-0.53,0.01-1.03-0.66-1.49c-0.41-0.28-0.24-1.4-0.32-2.14c-0.07-0.63,0.18-1.36-0.71-1.72
	c-0.22-0.09-0.26-0.7-0.31-1.09c-0.4-3.08-0.53-6.23-1.22-9.24c-1.47-6.37-0.55-12.76-0.61-19.15c1-2.12,0.39-4.51,1.03-6.63
	c0.51-1.7,0.64-3.39,0.86-5.09c0.01-0.12,0-0.3,0.06-0.34c1.4-0.84,0.49-2.39,1.04-3.38c0.65-1.15,0.45-2.59,1.06-3.46
	c0.62-0.87,0.52-1.71,0.83-2.52c0.41-1.06,1.02-2.04,1.54-3.05c0.07-0.13,0.19-0.24,0.24-0.38c0.39-1.02,0.68-2.1,1.17-3.07
	c0.49-0.97,1.18-1.83,1.79-2.74c0.02-0.03,0.05-0.06,0.07-0.1c0.38-1.02,0.7-2.07,1.17-3.04c0.3-0.63,0.82-1.14,1.23-1.71
	c0.54-0.75,0.97-1.62,1.63-2.25c0.81-0.77,0.91-1.98,1.91-2.62c0.4-0.25,0.3-0.92,0.96-1.28c0.68-0.37,0.9-1.48,1.47-2.16
	c0.74-0.89,1.62-1.67,2.44-2.49c0.4-0.4,0.8-0.79,1.18-1.2c1.11-1.22,2.16-2.49,3.34-3.64c0.56-0.55,1.39-0.82,2.04-1.29
	c0.58-0.42,1.06-0.98,1.64-1.41c1.22-0.91,2.03-2.36,3.69-2.69c0.38-0.08,0.67-0.59,1.03-0.85c1.16-0.82,2.33-1.62,3.5-2.43
	c0.15-0.11,0.25-0.31,0.41-0.38c0.99-0.44,2.37-0.58,2.9-1.33c0.74-1.05,2.29-0.4,2.7-1.68c0.03-0.1,0.36-0.09,0.54-0.14
	c0.55-0.15,1.37,0.2,1.47-0.79c0-0.02,0.06-0.05,0.1-0.06c1.18-0.42,2.36-0.81,3.53-1.26c1.41-0.54,2.81-1.13,4.22-1.66
	c0.36-0.14,0.79-0.12,1.15-0.26c0.62-0.23,1.21-0.58,1.84-0.79c0.44-0.15,0.92-0.15,1.39-0.23c0.96-0.17,2,0.24,2.84-0.78
	c0.32-0.38,1.37-0.11,2.08-0.21c1-0.14,2.17,0.35,2.92-0.79c0.1-0.15,0.53-0.09,0.81-0.1c1.24-0.04,2.48-0.05,3.72-0.12
	c0.88-0.05,1.84,0.22,2.52-0.71c0.15-0.2,0.68-0.17,1.03-0.17c4.48-0.01,8.95-0.02,13.43,0.02c0.45,0,0.9,0.34,1.36,0.51
	c0.32,0.12,0.65,0.29,0.98,0.31c1.12,0.07,2.24,0.03,3.36,0.12c1,0.09,1.97-0.11,2.97,0.69c0.69,0.55,2.08,0.2,3.16,0.28
	c0.62,0.05,1.34-0.23,1.72,0.67c0.09,0.21,0.8,0.15,1.23,0.23c0.99,0.18,2.19-0.36,2.89,0.84c0.03,0.05,0.15,0.04,0.22,0.06
	c1.45,0.38,2.91,0.74,4.35,1.16c1.21,0.35,2.88,0.43,3.49,1.26c0.83,1.12,2.49,0.22,2.9,1.66c0.03,0.11,0.55,0.02,0.79,0.13
	c0.34,0.14,0.63,0.38,0.94,0.59c0.09,0.06,0.13,0.24,0.21,0.25c0.78,0.11,1.39,0.26,2.05,0.94c0.72,0.75,2.08,0.85,3.07,1.39
	c0.63,0.35,1.11,0.98,1.66,1.48c0.11,0.1,0.21,0.26,0.33,0.27c1.3,0.09,2.13,0.89,2.9,1.82c0.06,0.08,0.22,0.11,0.33,0.11
	c1.18,0,1.58,1.1,2.36,1.67c0.57,0.42,1.14,0.86,1.7,1.29c0.68,0.53,1.35,1.06,2.02,1.6c0.65,0.52,1.32,1.02,1.95,1.58
	c0.42,0.37,0.78,0.81,1.16,1.24c1.06,1.19,2.09,2.41,3.16,3.59c0.41,0.45,0.94,0.81,1.39,1.23c0.21,0.2,0.46,0.43,0.53,0.69
	c0.28,1.02,1.02,1.62,1.79,2.25c0.47,0.38,0.9,0.91,1.13,1.46c0.46,1.12,1.12,2,2.03,2.82c0.6,0.54,0.58,1.9,1.2,2.26
	c1.08,0.61,0.41,2.24,1.76,2.5c0.07,0.01,0.12,0.19,0.16,0.29c0.41,1.1,0.52,2.53,1.3,3.23c0.84,0.76,0.28,2.27,1.65,2.55
	c0.08,0.02,0.02,0.46,0.11,0.67c0.2,0.46,0.46,0.88,0.67,1.33c0.13,0.27,0.22,0.57,0.28,0.87c0.15,0.76-0.24,1.74,0.88,2.09
	c-0.27,1.33,0.86,2.17,1.13,3.3c0.41,1.73,0.46,3.63,1.25,5.17c0.79,1.53,0.3,3.21,0.95,4.55c1.18,2.42,0.2,5.12,1.07,7.35
	c1.13,2.92,0.51,5.77,0.68,8.64c0.17,2.95,0.54,6.06-0.19,8.83c-0.63,2.4-0.07,4.88-0.9,7.03c-0.69,1.8-0.44,3.68-1.14,5.32
	c-0.51,1.18-0.34,2.45-0.85,3.48c-0.59,1.22-0.44,2.76-1.65,3.71c-0.19,0.15-0.16,0.59-0.22,0.91c-0.12,0.68,0.26,1.53-0.75,1.9
	c-0.16,0.06-0.17,0.58-0.21,0.89c-0.1,0.73,0.24,1.62-0.82,2.01c-0.15,0.05-0.06,0.61-0.19,0.89c-0.16,0.36-0.42,0.69-0.65,1.02
	c-0.06,0.09-0.19,0.15-0.23,0.24c-0.39,1.02-0.57,2.19-1.2,3.01c-0.67,0.88-0.46,2.28-1.7,2.76c-0.09,0.03-0.19,0.17-0.2,0.26
	c-0.09,1.35-1.48,2.06-1.76,3.09c-0.46,1.7-2,2.54-2.56,4.13c-0.37,1.04-1.59,1.78-2.43,2.65c-0.08,0.08-0.17,0.18-0.18,0.28
	c-0.16,1.24-1.02,1.86-1.96,2.56c-0.82,0.6-1.37,1.58-2.07,2.36c-0.47,0.53-1,1-1.5,1.5c-0.53,0.54-1.03,1.1-1.57,1.63
	c-0.37,0.37-0.77,0.71-1.18,1.04c-0.64,0.52-1.28,1.03-1.94,1.52c-0.59,0.43-1.25,0.76-1.8,1.23c-0.5,0.43-0.89,1-1.38,1.57
	c-1.15,0.05-1.92,0.88-2.72,1.73c-0.41,0.44-0.94,0.8-1.47,1.09c-0.89,0.49-1.84,0.85-2.72,1.34c-0.96,0.54-1.87,1.16-2.81,1.75
	c-0.06,0.04-0.1,0.12-0.17,0.15c-1.01,0.37-2.35,0.45-2.96,1.15c-0.86,0.99-2.5,0.27-2.97,1.69c-0.02,0.06-0.12,0.11-0.19,0.13
	c-1.16,0.37-2.32,0.75-3.49,1.09c-1.29,0.38-2.91,0.37-3.81,1.18c-1,0.9-2.17,0.39-2.92,0.93c-1.59,1.14-3.55,0.29-4.93,1.05
	c-1.89,1.03-3.76,0.54-5.61,0.84c-0.08,0.01-0.19-0.01-0.23,0.03c-1.31,1.4-3.14,0.63-4.67,1.11
	C255.52,224.16,250.88,224.16,246.24,224.16z M253.16,180.93c2.28,0,4.56,0.01,6.84-0.01c0.36,0,0.74-0.15,1.08-0.29
	c0.39-0.16,0.8-0.62,1.11-0.54c1.76,0.42,2.99-1.2,4.64-1.13c0.08,0,0.15-0.16,0.24-0.22c0.41-0.28,0.81-0.58,1.24-0.83
	c0.92-0.54,1.81-1.21,2.81-1.53c0.98-0.32,1.23-1.58,2.49-1.56c0.49,0.01,1.02-0.77,1.5-1.23c0.56-0.54,1.08-1.11,1.61-1.68
	c0.51-0.55,0.9-1.32,1.52-1.61c0.91-0.42,0.67-1.34,1.12-1.86c0.81-0.94,1.57-1.85,2.17-2.97c0.61-1.15,1.35-2.17,1.69-3.49
	c0.25-0.98,1.2-1.77,1.09-2.94c0-0.02,0.04-0.07,0.08-0.08c0.88-0.3,0.68-1.06,0.74-1.71c0.05-0.64-0.14-1.58,0.2-1.85
	c1.03-0.82,0.67-1.86,0.75-2.82c0.1-1.23,0.05-2.48,0.12-3.71c0.02-0.33,0.2-0.65,0.32-0.96c0.15-0.39,0.45-0.76,0.46-1.15
	c0.05-1.84,0.03-3.68,0.02-5.52c0-0.27,0.01-0.69-0.14-0.8c-0.97-0.65-0.65-1.63-0.7-2.5c-0.08-1.32-0.08-2.64-0.12-3.96
	c-0.01-0.28,0.02-0.73-0.12-0.8c-1.12-0.56-0.63-1.59-0.78-2.43c-0.08-0.43,0.03-1.17-0.17-1.26c-1.35-0.59-0.22-2.48-1.66-3.04
	c-0.25-0.1-0.14-0.92-0.35-1.33c-0.5-0.99-1.08-1.93-1.63-2.89c-0.41-0.71-0.68-1.62-1.28-2.07c-0.71-0.52-0.66-1.31-1.06-1.8
	c-1.03-1.26-2.33-2.3-3.53-3.41c-0.45-0.41-0.92-0.79-1.4-1.17c-0.74-0.59-1.44-1.25-2.25-1.74c-0.77-0.47-1.65-0.75-2.48-1.13
	c-0.72-0.33-1.75-0.53-2.05-1.09c-0.55-1.03-1.35-0.77-2.12-0.88c-0.28-0.04-0.72,0.04-0.81-0.11c-0.78-1.3-2.07-0.65-3.12-0.88
	c-0.36-0.08-0.72-0.18-1.07-0.32c-0.4-0.16-0.79-0.52-1.18-0.52c-3.88-0.04-7.76-0.03-11.63-0.03c-0.31,0-0.81,0.02-0.89,0.19
	c-0.42,0.89-1.19,0.61-1.86,0.68c-0.75,0.08-1.9-0.1-2.16,0.3c-0.5,0.79-1.15,0.5-1.72,0.71c-1.12,0.41-2.24,0.84-3.3,1.37
	c-0.93,0.47-1.79,1.08-2.66,1.65c-0.48,0.31-0.9,0.7-1.38,1c-0.7,0.44-1.52,0.72-2.11,1.26c-0.87,0.8-1.57,1.78-2.36,2.67
	c-1.23,1.41-2.6,2.73-3.67,4.26c-0.72,1.02-1.18,2.24-1.86,3.34c-0.66,1.08-0.69,2.56-1.35,3.64c-0.7,1.15-0.76,2.34-0.95,3.56
	c-0.02,0.1-0.1,0.25-0.19,0.28c-0.86,0.25-0.7,0.97-0.73,1.58c-0.06,1.2-0.07,2.4-0.12,3.6c-0.02,0.48,0.12,1.2-0.14,1.39
	c-1.07,0.79-0.68,1.87-0.7,2.83c-0.05,2.2-0.01,4.4,0.01,6.6c0,0.31,0,0.81,0.16,0.89c0.87,0.44,0.62,1.21,0.66,1.89
	c0.06,1.12,0.07,2.24,0.11,3.36c0.01,0.27-0.02,0.72,0.12,0.79c1.09,0.58,0.77,1.65,0.95,2.54c0.08,0.39,0.06,0.81,0.2,1.17
	c0.58,1.47,1.21,2.92,1.81,4.38c0.08,0.18,0.06,0.43,0.18,0.56c0.82,0.93,1.68,1.82,1.78,3.16c0.01,0.11,0.21,0.19,0.3,0.3
	c0.58,0.66,1.17,1.31,1.71,2c0.48,0.6,0.82,1.32,1.35,1.87c0.8,0.84,1.8,1.5,2.54,2.38c0.67,0.8,1.27,1.56,2.36,1.72
	c0.18,0.03,0.46,0.09,0.51,0.21c0.65,1.65,2.48,1.65,3.66,2.56c0.92,0.71,2.51,0.63,3.31,1.41c1.06,1.02,2.19,0.64,3.29,0.88
	c0.32,0.07,0.64,0.19,0.94,0.32c0.4,0.17,0.78,0.51,1.18,0.52C248.6,180.95,250.88,180.93,253.16,180.93z"/>
<path d="M763.2,224.16c-0.75-0.07-1.51-0.13-2.26-0.21c-0.75-0.07-1.6,0.18-2.1-0.74c-0.09-0.18-0.59-0.18-0.9-0.19
	c-1.08-0.05-2.16-0.04-3.24-0.1c-0.64-0.03-1.38,0.19-1.75-0.67c-0.06-0.15-0.5-0.16-0.77-0.18c-0.68-0.05-1.37,0.02-2.03-0.11
	c-1.56-0.3-3.36-0.32-4.59-1.15c-0.98-0.66-1.93-0.63-2.87-0.99c-1.26-0.49-2.48-1.09-3.73-1.6c-1.16-0.47-2.38-0.8-3.5-1.34
	c-0.95-0.45-1.81-1.1-2.71-1.66c-0.07-0.04-0.14-0.08-0.21-0.09c-1.93-0.22-3.13-1.96-5-2.39c-0.61-0.14-1.08-0.95-1.6-1.46
	c-0.05-0.05-0.09-0.17-0.14-0.18c-1.36-0.1-2.05-1.15-3-1.91c-0.54-0.43-1.38-0.59-1.96-1.21c-0.55-0.59-2.41-1.95-2.86-2.76
	c-0.06-0.11-0.24-0.18-0.38-0.21c-1.59-0.32-2.31-1.71-3.32-2.73c-0.41-0.41-0.74-0.93-1.21-1.24c-0.99-0.64-1.69-1.39-2.09-2.56
	c-0.2-0.58-1-0.93-1.49-1.42c-0.3-0.3-0.52-0.69-0.78-1.03c-0.57-0.78-1.13-1.57-1.73-2.33c-0.48-0.6-1.01-1.16-1.52-1.73
	c-0.38-0.42-1-0.8-1.08-1.27c-0.16-0.92-0.78-1.48-1.15-2.2c-0.51-1.01-1-1.96-1.81-2.74c-0.1-0.09-0.07-0.31-0.13-0.45
	c-0.26-0.56-0.34-1.11-0.91-1.63c-0.71-0.65-0.85-1.91-1.26-2.9c-0.13-0.31-0.34-0.6-0.52-0.89c-0.06-0.09-0.26-0.16-0.26-0.22
	c0.11-1.36-0.79-2.34-1.26-3.48c-0.61-1.5-1.14-3.03-1.67-4.56c-0.15-0.45-0.16-0.94-0.28-1.4c-0.13-0.53,0.08-1.22-0.76-1.45
	c-0.17-0.05-0.17-0.71-0.25-1.09c-0.21-1.06,0.38-2.31-0.84-3.15c-0.21-0.14-0.06-0.76-0.12-1.16c-0.21-1.36,0.35-2.83-0.78-4.08
	c-0.34-0.37-0.16-1.23-0.17-1.87c-0.04-1.28,0.01-2.57-0.1-3.84c-0.06-0.65-0.43-1.27-0.62-1.91c-0.11-0.38-0.2-0.77-0.21-1.16
	c-0.02-4.44-0.03-8.88,0.01-13.32c0-0.48,0.39-0.96,0.57-1.45c0.12-0.33,0.23-0.67,0.24-1.02c0.05-1.48,0.04-2.96,0.11-4.44
	c0.04-0.84-0.02-1.62,0.66-2.43c0.46-0.54,0.16-1.68,0.28-2.55c0.13-0.91-0.28-1.87,0.74-2.69c0.44-0.36,0.11-1.6,0.25-2.42
	c0.07-0.43,0.4-0.81,0.62-1.21c0.07-0.13,0.21-0.24,0.23-0.38c0.17-1.07,0.35-2.07,0.91-3.09c0.66-1.2,0.81-2.69,1.21-4.04
	c0.07-0.24,0.28-0.44,0.42-0.66c0.21-0.35,0.49-0.68,0.6-1.06c0.19-0.67-0.21-1.58,0.88-1.84c0.09-0.02,0.03-0.46,0.12-0.67
	c0.2-0.45,0.47-0.88,0.7-1.32c0.1-0.2,0.13-0.44,0.24-0.63c0.24-0.43,0.51-0.85,0.75-1.28c0.11-0.2,0.23-0.41,0.26-0.62
	c0.14-1.07,0.83-1.78,1.54-2.5c0.22-0.22,0.22-0.64,0.39-0.93c0.22-0.37,0.49-0.7,0.76-1.04c0.09-0.11,0.31-0.19,0.32-0.3
	c0.1-1.28,0.91-2.01,1.81-2.85c0.94-0.88,1.44-2.21,2.22-3.27c0.46-0.62,1.11-1.09,1.66-1.65c0.43-0.44,1.08-0.87,1.17-1.39
	c0.31-1.65,1.83-2.19,2.72-3.29c0.41-0.51,0.93-0.92,1.41-1.37c1.16-1.08,2.11-2.35,3.61-3.12c0.99-0.51,1.65-1.65,2.54-2.4
	c0.63-0.53,1.4-0.89,2.11-1.32c0.63-0.38,1.28-0.73,1.89-1.14c1.44-0.93,2.85-1.9,4.28-2.84c0.91-0.59,1.82-1.17,2.75-1.73
	c0.22-0.13,0.5-0.19,0.76-0.25c0.49-0.12,1.2,0.13,1.24-0.75c0-0.05,0.12-0.14,0.17-0.14c0.88,0.04,1.44-0.5,2.15-0.93
	c1.16-0.69,2.6-0.91,3.93-1.32c1.08-0.34,2.46-0.36,3.19-1.06c1.14-1.1,2.41-0.65,3.6-0.96c0.5-0.13,0.89-0.65,1.39-0.78
	c0.61-0.15,1.27-0.06,1.91-0.11c0.68-0.05,1.42,0.15,1.9-0.65c0.12-0.21,0.66-0.21,1.01-0.23c1.04-0.06,2.08-0.04,3.12-0.13
	c0.98-0.08,2.08,0.3,2.85-0.75c0.13-0.18,0.61-0.14,0.92-0.14c4.52,0,9.04-0.01,13.55,0.03c0.45,0,0.9,0.37,1.36,0.53
	c0.36,0.13,0.74,0.27,1.12,0.29c1.56,0.07,3.12,0.07,4.68,0.15c0.79,0.04,1.61-0.16,2.27,0.69c0.25,0.32,1.14,0.09,1.72,0.21
	c1.15,0.25,2.46-0.45,3.48,0.81c0.31,0.38,1.37,0.12,2.09,0.19c0.63,0.06,1.41-0.19,1.71,0.71c0.03,0.08,0.2,0.12,0.31,0.15
	c1.41,0.37,2.84,0.71,4.24,1.12c1.25,0.36,2.62,0.59,3.69,1.27c1.28,0.82,2.95,1.02,3.93,1.94c0.85,0.8,2.2,0.33,2.77,1.63
	c0.26,0.59,1.54,0.65,2.15,1.18c0.86,0.75,2.13,0.76,2.82,1.9c0.37,0.62,1.48,0.78,2.21,1.21c0.53,0.31,1.03,0.7,1.49,1.11
	c0.96,0.86,1.9,1.75,2.83,2.65c0.38,0.36,0.71,0.77,1.08,1.14c1.07,1.08,2.16,2.14,3.24,3.21c0.58,0.57,1.19,1.13,1.74,1.72
	c0.42,0.46,0.8,0.97,1.17,1.47c0.91,1.22,1.81,2.45,2.7,3.68c0.15,0.21,0.21,0.5,0.36,0.71c0.55,0.77,1.13,1.53,1.7,2.29
	c0.04,0.06,0.15,0.08,0.18,0.14c0.39,0.94,0.75,1.89,1.16,2.82c0.13,0.29,0.35,0.54,0.56,0.78c0.09,0.12,0.31,0.16,0.36,0.28
	c0.41,1.05,0.75,2.13,1.21,3.15c0.45,1,1.03,1.95,1.56,2.92c0.04,0.07,0.16,0.11,0.16,0.16c0,1.31,0.62,2.42,1.1,3.59
	c0.29,0.71-0.13,1.6,0.81,2.2c0.33,0.21,0.11,1.21,0.24,1.82c0.09,0.4,0.36,0.75,0.56,1.12c0.09,0.17,0.25,0.32,0.28,0.49
	c0.43,2.42,0.69,4.88,1.29,7.26c0.95,3.72,0.34,7.64,1.2,11.25c1.11,4.66,0.26,9.23,0.6,13.82c-1.35,2.48-0.54,5.28-1.15,8.06
	c-34.83,0-69.69,0-105,0c0.36,0.89,0.59,1.47,0.82,2.06c0.11,0.29,0.25,0.57,0.29,0.87c0.1,0.91,0.02,1.87,0.27,2.74
	c0.42,1.44,1.05,2.82,1.58,4.23c0.1,0.25,0.11,0.56,0.25,0.78c0.52,0.81,1.08,1.6,1.63,2.39c0.1,0.15,0.28,0.29,0.29,0.45
	c0.08,1.24,0.96,1.87,1.79,2.61c0.78,0.69,1.38,1.58,2.13,2.33c0.89,0.9,1.85,1.73,2.78,2.59c0.58,0.54,1.15,1.08,1.73,1.62
	c0.06,0.05,0.09,0.14,0.16,0.17c0.93,0.42,1.86,0.83,2.79,1.25c0.23,0.1,0.44,0.24,0.65,0.36c0.29,0.17,0.58,0.36,0.87,0.53
	c0.43,0.25,0.86,0.49,1.28,0.74c0.06,0.04,0.1,0.13,0.17,0.15c1.12,0.37,2.32,0.6,3.36,1.13c2.13,1.08,4.66,0.37,6.63,1.26
	c2.85,1.29,5.65,0.42,8.44,0.71c0.41,0.04,0.87-0.35,1.31-0.54c0.24-0.1,0.49-0.24,0.75-0.28c0.51-0.08,1.04-0.06,1.55-0.15
	c2.07-0.37,4.27-0.46,6.15-1.27c0.89-0.38,2.4-0.22,2.82-1.59c0.01-0.03,0.07-0.04,0.1-0.05c1.01-0.38,2.05-0.7,3.03-1.15
	c0.56-0.26,1.06-0.67,1.53-1.09c0.99-0.88,1.97-1.79,2.89-2.74c0.48-0.5,0.82-1.12,1.24-1.68c0.33-0.45,0.6-1.01,1.05-1.29
	c1.2-0.74,1.12-2.23,1.98-3.12c0.84-0.87,0.59-2.33,1.79-3.05c0.32-0.19,0.21-1.1,0.36-2.05c0.7,0.28,1.27,0.52,1.86,0.74
	c0.26,0.09,0.53,0.13,0.8,0.2c1.14,0.28,2.49-0.14,3.36,1.1c0.15,0.21,0.76,0.07,1.16,0.13c0.69,0.09,1.43-0.18,1.99,0.69
	c0.23,0.36,1.27,0.19,1.94,0.28c0.65,0.09,1.5-0.27,1.77,0.74c0.01,0.05,0.14,0.12,0.2,0.11c1.78-0.41,3.11,0.94,4.74,1.22
	c1.82,0.31,3.7,0.65,5.38,1.59c0.48,0.27,1.19,0.1,1.76,0.28c0.63,0.19,1.22,0.55,1.82,0.83c0.1,0.05,0.19,0.16,0.29,0.18
	c1.78,0.36,3.58,0.68,5.35,1.07c0.49,0.11,0.92,0.43,1.39,0.66c0.14,0.07,0.28,0.2,0.41,0.19c1.42-0.16,2.58,0.44,3.76,1.13
	c0.83,0.48,1.02,1.18,0.28,1.87c-0.22,0.21-0.38,0.54-0.46,0.84c-0.23,0.84,0.31,1.93-0.89,2.46c-0.15,0.06-0.08,0.6-0.12,0.91
	c-0.09,0.68,0.15,1.47-0.77,1.84c-0.14,0.06-0.08,0.52-0.19,0.76c-0.22,0.44-0.49,0.85-0.75,1.27c-0.08,0.13-0.18,0.24-0.24,0.37
	c-0.74,1.7-1.43,3.44-2.25,5.1c-0.3,0.6-0.94,1.04-1.42,1.55c-0.12,0.13-0.3,0.28-0.31,0.43c-0.05,1.25-0.99,1.88-1.73,2.69
	c-0.6,0.66-0.91,1.58-1.48,2.28c-0.78,0.96-1.71,1.8-2.54,2.73c-0.45,0.5-0.8,1.09-1.26,1.59c-0.43,0.47-0.94,0.87-1.38,1.33
	c-0.54,0.56-1.04,1.16-1.59,1.72c-0.4,0.41-0.8,0.83-1.27,1.14c-0.78,0.52-1.39,1.15-1.98,1.91c-0.47,0.61-1.5,0.76-2.2,1.24
	c-0.65,0.44-1.18,1.05-1.77,1.59c-0.11,0.1-0.23,0.19-0.36,0.26c-1.38,0.74-2.95,1.27-4.08,2.28c-0.69,0.62-1.35,0.67-2.05,0.97
	c-0.91,0.4-1.69,1.11-2.55,1.64c-0.22,0.13-0.56,0.06-0.8,0.17c-0.35,0.16-0.65,0.41-0.97,0.62c-0.18,0.12-0.35,0.29-0.54,0.38
	c-0.65,0.29-1.29,0.61-1.97,0.81c-1.47,0.45-2.98,0.8-4.45,1.25c-0.42,0.13-0.79,0.45-1.18,0.69c-0.13,0.08-0.26,0.23-0.38,0.22
	c-2.21-0.14-4.09,1.53-6.36,1.14c-0.43-0.07-0.93,0.39-1.42,0.57c-0.32,0.12-0.67,0.24-1.01,0.26c-1,0.06-2,0.05-3,0.09
	c-0.69,0.03-1.32,0-1.93,0.65c-0.38,0.4-1.35,0.24-2.05,0.32c-0.59,0.07-1.18,0.13-1.77,0.19
	C772.48,224.16,767.84,224.16,763.2,224.16z M797.14,125.92c-0.09-1.3,0.2-2.7-0.37-3.51c-0.55-0.78-0.51-1.46-0.68-2.22
	c-0.3-1.32-0.42-2.8-1.14-3.86c-0.45-0.67-0.74-1.24-0.87-1.98c-0.02-0.13-0.28-0.22-0.39-0.35c-0.21-0.24-0.43-0.47-0.57-0.75
	c-0.16-0.31-0.16-0.73-0.38-0.99c-1.2-1.41-2.44-2.8-3.69-4.18c-0.35-0.38-0.75-0.73-1.17-1.03c-0.86-0.61-1.73-1.21-2.63-1.75
	c-0.73-0.45-1.49-1.1-2.28-1.16c-1.37-0.11-2.12-1.7-3.61-1.3c-0.75-1.39-2.11-0.63-3.18-0.91c-0.4-0.11-0.8-0.21-1.19-0.35
	c-0.42-0.15-0.83-0.49-1.24-0.49c-4.2-0.04-8.4-0.02-12.59-0.02c-0.28,0-0.72-0.04-0.8,0.1c-0.72,1.22-1.91,0.61-2.89,0.81
	c-0.38,0.08-1.04,0.03-1.11,0.21c-0.34,0.88-1.06,0.66-1.69,0.75c-0.19,0.03-0.51,0.04-0.54,0.14c-0.44,1.3-1.91,0.89-2.73,1.66
	c-0.76,0.72-1.97,0.96-2.97,1.43c-0.12,0.06-0.15,0.26-0.26,0.36c-0.53,0.49-1.08,0.96-1.61,1.44c-0.49,0.44-0.99,0.87-1.44,1.34
	c-0.52,0.56-1.06,1.12-1.45,1.76c-0.51,0.82-1.82,1.09-1.65,2.37c0.01,0.11-0.05,0.31-0.1,0.32c-1.32,0.24-0.53,1.92-1.68,2.42
	c-0.51,0.22-0.83,1.11-1.02,1.76c-0.48,1.66-0.83,3.36-1.24,5.04c-0.05,0.19-0.14,0.37-0.2,0.56c-0.2,0.74-0.39,1.47-0.63,2.35
	C757.3,125.92,777.08,125.92,797.14,125.92z"/>
<path d="M485.04,224.16c-0.91-0.07-1.83-0.13-2.74-0.22c-0.8-0.08-1.69,0.16-2.25-0.77c-0.12-0.19-0.67-0.16-1.02-0.17
	c-0.96-0.04-1.92,0-2.87-0.1c-0.45-0.05-0.87-0.37-1.32-0.53c-0.4-0.14-0.82-0.27-1.24-0.3c-0.96-0.08-2.19,0.26-2.81-0.22
	c-1.08-0.82-2.38-0.41-3.29-0.94c-1.82-1.05-3.89-1.26-5.68-2.13c-0.94-0.46-2.51-0.16-2.89-1.66c-0.01-0.04-0.14-0.05-0.21-0.08
	c-1.08-0.37-2.37-0.48-3.19-1.16c-1.11-0.93-2.84-1-3.5-2.53c-0.06-0.14-0.46-0.09-0.64-0.22c-0.8-0.57-1.58-1.18-2.35-1.78
	c-0.49-0.38-0.89-0.95-1.44-1.14c-2.03-0.73-3.11-2.5-4.53-3.91c-0.86-0.85-1.88-1.55-2.67-2.45c-0.88-1.02-1.47-2.29-2.38-3.28
	c-1.03-1.13-1.08-2.96-2.72-3.62c-0.1-0.04-0.11-0.36-0.14-0.55c-0.1-0.56,0.06-1.24-0.79-1.4c-0.09-0.02-0.14-0.34-0.18-0.53
	c-0.14-0.61,0.12-1.43-0.89-1.54c-0.05-0.01-0.11-0.11-0.13-0.18c-0.38-1.01-0.79-2.02-1.14-3.04c-0.38-1.12-0.37-2.62-1.12-3.31
	c-1.15-1.07-0.57-2.24-0.88-3.32c-0.1-0.35-0.32-0.66-0.48-1c-0.11-0.23-0.31-0.47-0.32-0.71c-0.06-1.32-0.08-2.64-0.11-3.96
	c-0.02-0.78,0.39-1.19,1.14-1.25c0.8-0.07,1.6-0.08,2.39-0.16c0.67-0.07,1.43,0.15,1.85-0.72c0.1-0.2,0.65-0.22,1-0.24
	c0.96-0.05,1.92-0.04,2.88-0.1c0.76-0.04,1.55,0.14,2.15-0.66c0.2-0.27,0.9-0.19,1.37-0.21c1.04-0.05,2.08-0.02,3.11-0.13
	c0.41-0.04,0.79-0.37,1.19-0.54c0.28-0.12,0.57-0.25,0.86-0.27c1.08-0.06,2.16-0.05,3.24-0.13c0.73-0.05,1.48,0.19,2.08-0.73
	c0.27-0.41,1.41-0.26,2.16-0.37c2.64-0.37,5.35-0.47,7.88-1.2c1.56-0.46,3.06-0.61,4.62-0.73c0.8-0.06,1.06,0.22,1.18,1.05
	c0.25,1.81,0.68,3.59,1.04,5.39c1.35,0.43,0.45,2.2,1.73,2.83c0.42,0.21,0.18,1.39,1.05,1.88c0.59,0.33,0.84,1.21,1.35,1.75
	c0.94,1.01,1.95,1.96,2.95,2.92c0.12,0.12,0.37,0.1,0.55,0.16c0.47,0.16,1.19-0.05,1.23,0.8c0,0.06,0.18,0.17,0.27,0.17
	c0.79,0,1.3,0.33,1.91,0.89c0.63,0.59,1.7,0.73,2.59,1.01c3.68,1.14,7.47,1.25,11.26,1c1.9-0.12,3.76-0.66,5.65-1.01
	c0.41-1.17,2.23-0.27,2.48-1.68c0.01-0.05,0.21-0.11,0.32-0.1c1.26,0.03,1.9-0.84,2.49-1.74c0.29-0.45,1.09-0.06,1.2-1.04
	c0.09-0.79,1.03-1.48,1.58-2.22c0.11-0.15,0.18-0.34,0.21-0.53c0.15-0.93-0.11-1.92,0.88-2.68c0.57-0.45,0.01-3.43-0.51-4.06
	c-0.14-0.17-0.25-0.43-0.24-0.65c0.08-2.06-1.31-3.14-2.73-4.25c-0.53-0.41-0.92-1-1.38-1.5c-0.12-0.13-0.26-0.29-0.42-0.33
	c-0.66-0.13-1.16-0.26-1.75-0.83c-0.74-0.71-2.04-0.87-3.11-1.21c-1.98-0.61-3.96-1.2-5.96-1.74c-0.61-0.16-1.27-0.12-1.9-0.21
	c-0.74-0.1-1.62,0.17-2.05-0.83c-0.07-0.17-0.58-0.19-0.89-0.21c-0.88-0.05-1.77-0.01-2.63-0.13c-0.46-0.07-0.88-0.42-1.34-0.62
	c-0.28-0.12-0.58-0.18-0.87-0.24c-1.12-0.26-2.4,0.37-3.4-0.84c-0.31-0.38-1.38-0.09-2.09-0.18c-0.93-0.11-2.05,0.31-2.66-0.84
	c-0.03-0.05-0.14-0.06-0.22-0.08c-1.7-0.37-3.42-0.71-5.11-1.11c-1.4-0.34-2.91-0.52-4.13-1.2c-1.57-0.87-3.07-1.74-4.9-1.85
	c-0.42-1.19-2.13-0.43-2.52-1.67c-0.03-0.08-0.18-0.14-0.29-0.18c-1.1-0.42-2.25-0.74-3.29-1.28c-0.6-0.31-1.01-0.97-1.52-1.47
	c-0.1-0.1-0.22-0.26-0.34-0.27c-1.3-0.09-2.13-0.9-2.89-1.83c-0.06-0.08-0.23-0.13-0.33-0.11c-1.22,0.24-1.37-1.13-2.24-1.5
	c-0.74-0.31-1.32-1.03-1.93-1.61c-0.44-0.42-0.79-0.93-1.22-1.36c-0.57-0.57-1.19-1.08-1.75-1.64c-0.34-0.35-0.66-0.73-0.93-1.14
	c-0.47-0.71-0.85-1.47-1.33-2.17c-0.41-0.6-0.91-1.15-1.38-1.72c-0.16-0.2-0.37-0.37-0.47-0.59c-0.55-1.22-0.94-2.51-1.99-3.45
	c-0.14-0.12-0.05-0.47-0.14-0.67c-0.21-0.44-0.48-0.86-0.72-1.28c-0.04-0.06-0.14-0.1-0.15-0.16c-0.36-1.23-0.73-2.45-1.04-3.69
	c-0.2-0.82,0.28-1.88-0.89-2.34c-0.08-0.03-0.09-0.29-0.11-0.45c-0.37-3.16-0.83-6.32-1.08-9.49c-0.16-2.03-0.12-4.09,0.06-6.11
	c0.2-2.14,0.28-4.44,1.16-6.31c0.6-1.28,0.28-2.87,0.99-3.62c1.12-1.18,0.23-2.89,1.61-3.92c0.69-0.52,0.77-1.81,1.23-2.7
	c0.42-0.82,0.98-1.58,1.47-2.36c0.08-0.13,0.2-0.25,0.23-0.39c0.24-1.22,1.24-1.89,1.95-2.77c0.46-0.57,0.29-1.45,1.18-1.89
	c0.55-0.27,0.76-1.14,1.22-1.67c0.97-1.12,1.99-2.19,3-3.27c0.23-0.24,0.51-0.44,0.76-0.66c0.69-0.62,1.36-1.27,2.07-1.87
	c0.54-0.46,1.15-0.83,1.71-1.28c0.4-0.31,0.73-0.7,1.13-1.01c1.22-0.94,2.41-1.92,3.7-2.76c0.85-0.55,1.85-0.86,2.77-1.31
	c0.27-0.13,0.5-0.36,0.75-0.53c0.17-0.12,0.34-0.3,0.54-0.33c0.63-0.11,1.4,0.06,1.57-0.88c0.01-0.07,0.18-0.14,0.29-0.17
	c2.05-0.71,4.3-1.1,6.1-2.22c1.31-0.82,2.8-0.35,3.77-1.04c1.36-0.96,2.93-0.27,4.05-0.92c2.02-1.16,4.32-0.18,6.12-1
	c2.68-1.23,5.36-0.74,8.03-0.86c2.75-0.12,5.65-0.41,8.23,0.3c2.51,0.69,5.09,0.19,7.4,0.98c1.69,0.58,3.48,0.28,4.95,0.94
	c1.2,0.54,2.54,0.35,3.5,0.91c1.79,1.04,3.92,1.07,5.58,2.13c0.98,0.62,2.49,0.23,3.03,1.64c0.05,0.13,0.51,0.11,0.78,0.16
	c0.46,0.09,1.11-0.12,1.15,0.69c0,0.07,0.16,0.18,0.25,0.2c1.99,0.3,3.21,1.88,4.8,2.85c0.75,0.45,1.58,0.78,2.26,1.32
	c0.98,0.78,1.84,1.71,2.77,2.56c0.83,0.75,1.73,1.43,2.51,2.22c0.53,0.53,0.88,1.23,1.36,1.8c0.38,0.46,0.83,0.87,1.29,1.26
	c1.19,0.99,2.25,2.06,2.78,3.57c0.17,0.48,0.5,1.09,0.9,1.25c1.13,0.43,0.48,2.08,1.74,2.33c0.07,0.01,0.13,0.18,0.17,0.29
	c0.4,1.11,0.71,2.26,1.22,3.32c0.43,0.91,1.09,1.71,1.64,2.56c0.06,0.1,0.14,0.22,0.14,0.32c-0.06,2.12,1.6,3.92,1.16,6.12
	c-0.05,0.26-0.02,0.69,0.14,0.8c1.11,0.79,0.67,1.95,0.73,2.96c0.09,1.53-0.71,2.35-2.25,2.48c-1,0.08-2.11-0.09-2.96,0.3
	c-1.99,0.91-4.23,0.32-6.1,1.03c-1.98,0.76-4.12,0.17-5.83,0.99c-1.76,0.85-3.7,0.19-5.15,0.96c-1.73,0.9-3.64,0.16-5.05,0.95
	c-1.91,1.07-3.82,0.55-5.71,0.85c-0.2,0.03-0.49,0-0.57,0.11c-1.13,1.58-2.76,0.6-4.01,0.93c-0.73-2.03-1.4-3.91-2.09-5.79
	c-0.43-1.16-0.82-2.35-1.37-3.46c-0.33-0.66-0.91-1.2-1.38-1.79c-0.46-0.57-0.91-1.16-1.4-1.7c-0.43-0.47-0.86-1.02-1.4-1.27
	c-0.78-0.36-1.27-1.16-2.33-1.23c-0.38-0.02-1.26-0.66-1.76-1.09c-0.82-0.72-1.77-0.49-2.59-0.83c-3.63-1.5-7.41-0.92-11.13-0.73
	c-1.72,0.08-3.48,0.57-4.98,1.64c-0.74,0.53-1.69,0.76-2.44,1.27c-0.59,0.4-1.02,1.04-1.54,1.55c-0.52,0.51-1.08,0.97-1.58,1.5
	c-0.16,0.17-0.15,0.5-0.27,0.73c-0.17,0.33-0.38,0.64-0.59,0.94c-0.09,0.12-0.3,0.19-0.33,0.31c-0.33,1.71-0.83,3.42-0.89,5.14
	c-0.04,1.16,0.21,2.64,0.93,3.43c0.97,1.05,0.99,2.84,2.64,3.33c0.18,0.05,0.24,0.54,0.45,0.64c0.61,0.4,1.19,0.83,1.82,1.17
	c0.3,0.16,0.7,0.1,1.02,0.23c0.34,0.14,0.63,0.4,0.97,0.57c0.29,0.14,0.61,0.26,0.93,0.33c0.83,0.18,1.85-0.28,2.4,0.83
	c0.09,0.18,0.67,0.11,1.03,0.17c2.67,0.4,5.43,0.53,7.99,1.29c1.54,0.46,3.08,0.5,4.59,0.85c0.38,0.09,0.72,0.37,1.08,0.55
	c0.27,0.13,0.54,0.3,0.83,0.33c0.84,0.07,1.68,0.06,2.51,0.12c0.67,0.04,1.45-0.21,1.86,0.69c0.07,0.16,0.58,0.13,0.89,0.19
	c1.41,0.27,3.03-0.49,4.2,0.91c0.09,0.11,0.39,0.04,0.58,0.06c0.88,0.12,1.92-0.25,2.46,0.84c0.02,0.05,0.15,0.04,0.22,0.06
	c1.54,0.39,3.26,0.48,4.57,1.26c1.28,0.76,3.08,0.25,3.97,1.78c0.09,0.16,0.54,0.07,0.78,0.18c0.4,0.19,0.76,0.46,1.15,0.68
	c0.19,0.11,0.41,0.16,0.63,0.23c0.5,0.16,1.29-0.18,1.34,0.77c0,0.05,0.13,0.14,0.18,0.13c1.41-0.33,2.01,1.27,3.27,1.37
	c0.32,0.02,0.62,0.47,0.92,0.74c1.17,1.05,2.87,1.32,3.82,2.78c0.41,0.63,1.46,0.82,2.17,1.29c0.43,0.28,0.78,0.69,1.13,1.06
	c0.84,0.88,1.66,1.79,2.52,2.66c0.47,0.47,1.04,0.84,1.53,1.29c0.44,0.4,1.12,0.79,1.21,1.28c0.36,1.8,2.01,2.58,2.84,3.97
	c0.5,0.83,0.84,1.75,1.3,2.6c0.2,0.38,0.52,0.7,0.76,1.06c0.12,0.18,0.22,0.39,0.28,0.6c0.18,0.57-0.23,1.45,0.83,1.57
	c0.02,0,0.04,0.06,0.06,0.1c0.36,1.21,0.69,2.43,1.08,3.63c0.15,0.47,0.43,0.91,0.65,1.36c0.08,0.17,0.2,0.34,0.23,0.53
	c0.41,2.43,1.08,4.86,1.15,7.31c0.14,4.43,0.01,8.87-0.17,13.31c-0.06,1.46-0.24,3.15-1.03,4.27c-0.8,1.14-0.41,2.45-1,3.33
	c-0.69,1.03-0.33,2.51-1.54,3.23c-0.1,0.06-0.16,0.29-0.15,0.43c0.14,1.59-0.98,2.54-1.76,3.7c-0.58,0.85-0.89,1.88-1.38,2.81
	c-0.33,0.64-0.62,1.44-1.16,1.79c-1.06,0.69-0.97,2.03-1.85,2.77c-0.4,0.34-0.71,0.77-1.09,1.13c-1.21,1.13-2.45,2.21-3.63,3.36
	c-0.84,0.82-1.53,1.8-2.4,2.58c-0.67,0.6-1.56,0.97-2.28,1.52c-0.92,0.7-1.77,1.48-2.65,2.24c-0.08,0.07-0.1,0.25-0.19,0.29
	c-0.98,0.42-1.98,0.81-2.96,1.25c-0.3,0.13-0.55,0.39-0.84,0.56c-0.21,0.13-0.44,0.26-0.68,0.32c-0.54,0.13-1.26-0.05-1.28,0.86
	c0,0.07-0.17,0.15-0.28,0.19c-1.12,0.37-2.47,0.46-3.31,1.17c-1.2,1.02-2.97,0.36-3.99,1.69c-0.24,0.31-1.06,0.17-1.61,0.24
	c-0.67,0.08-1.49-0.19-1.82,0.75c-0.02,0.07-0.2,0.11-0.3,0.13c-2.32,0.35-4.65,0.7-6.97,1.02c-0.76,0.1-1.57-0.15-2.14,0.7
	c-0.15,0.23-0.74,0.2-1.13,0.23c-1.11,0.1-2.23,0.17-3.34,0.26C494.48,224.16,489.76,224.16,485.04,224.16z"/>
<path d="M402.24,0c0,68.27,0,136.53,0.01,204.8c0,4.36,0,8.72,0,13.08c0,1.78-0.16,1.93-1.91,1.93
	c-13.96,0-27.91,0-41.87,0c-1.77,0-2.28-0.53-2.28-2.29c0-71.95,0-143.89,0-215.84c0-0.56-0.01-1.12-0.02-1.68
	C371.52,0,386.88,0,402.24,0z"/>
<path d="M989.04,224.16c-0.59-0.08-1.32,0.03-1.74-0.28c-1.13-0.84-2.52-0.65-3.66-1.11c-1.44-0.59-2.8-1.37-4.34-1.82
	c-0.83-0.24-1.48-1.04-2.23-1.56c-0.21-0.15-0.47-0.21-0.72-0.31c-0.95-0.36-1.74-0.86-2.24-1.82c-0.24-0.46-0.8-0.76-1.22-1.13
	c-1.2-1.07-2.5-2.04-3.56-3.23c-0.92-1.04-1.53-2.35-2.35-3.49c-0.91-1.26-1.28-2.89-2.14-3.98c-0.72-0.92-0.39-2.16-1.46-2.9
	c-0.44-0.31-0.16-1.59-0.31-2.41c-0.08-0.44-0.39-0.84-0.57-1.27c-0.12-0.28-0.25-0.58-0.26-0.86c-0.02-3.6-0.19-7.21,0.09-10.78
	c0.1-1.27,0.5-2.75,1.03-3.89c0.42-0.9,0.6-1.76,0.81-2.66c0.05-0.22,0.27-0.4,0.42-0.59c0.17-0.22,0.38-0.41,0.52-0.64
	c0.53-0.9,1.05-1.81,1.57-2.72c0.08-0.14,0.14-0.28,0.22-0.42c0.46-0.76,0.87-1.55,1.39-2.27c0.55-0.76,1.16-1.49,1.81-2.17
	c1.07-1.12,1.97-2.43,3.52-3.01c0.49-0.18,1.07-0.52,1.28-0.94c0.74-1.5,2.47-1.63,3.53-2.7c0.48-0.49,1.39-0.25,2.05-0.9
	c0.53-0.52,1.53-0.83,2.28-1.08c1.93-0.66,4.02-1.04,6.06-1.15c3.27-0.17,6.55-0.04,9.83,0.03c0.48,0.01,0.93,0.43,1.43,0.58
	c0.51,0.15,1.06,0.21,1.59,0.3c0.61,0.11,1.41-0.24,1.68,0.72c0.03,0.11,0.34,0.17,0.53,0.19c1.94,0.15,3.59,1.16,5.03,2.24
	c0.98,0.73,2.22,1.03,3.01,1.94c1.16,1.34,2.69,2.19,3.98,3.34c0.59,0.53,0.82,1.44,1.32,2.09c0.43,0.57,1.02,1.02,1.54,1.52
	c0.11,0.1,0.3,0.19,0.31,0.3c0.15,1.26,1.33,1.99,1.67,3.03c0.43,1.31,1.86,2.23,1.49,3.83c-0.03,0.15-0.02,0.41,0.06,0.46
	c1.15,0.64,0.79,1.78,0.86,2.74c0.05,0.72,0.4,0.77,0.94,0.64c0,4.32,0,8.64,0,12.96c-0.65-0.05-0.9,0.24-0.92,0.91
	c-0.02,0.73-0.14,1.48-0.32,2.19c-0.13,0.53-0.45,1.01-0.66,1.52c-0.46,1.11-0.87,2.24-1.35,3.34c-0.29,0.68-0.5,1.58-1.04,1.94
	c-1.32,0.87-1.49,2.53-2.66,3.46c-0.37,0.3-0.65,0.72-0.97,1.09c-0.46,0.54-0.86,1.15-1.39,1.61c-0.84,0.74-2.18,1.2-2.57,2.1
	c-0.51,1.18-1.63,1.37-2.35,1.78c-1.4,0.8-2.56,2.25-4.4,2.22c-0.07,0-0.17,0.06-0.2,0.11c-0.57,1.35-2.41,0.35-3.01,1.63
	c-1.95-0.36-3.45,1.15-5.29,1.28C994.32,224.16,991.68,224.16,989.04,224.16z"/>
<path d="M570.14,108.99c0-0.85,0-1.44,0-2.04c0-12,0-24,0-36c0-2.12,0-2.12,2.09-2.12c7.52,0,15.04,0,22.56,0
	c1.79,0,2.29-0.51,2.29-2.3c0-13.12,0-26.24,0-39.36c0-0.68,0-1.35,0-2.14c15.04,0,30.01,0,45.17,0c0,0.7,0,1.36,0,2.03
	c0,13.2,0,26.4,0,39.6c0,1.55,0.63,2.17,2.22,2.17c8.36,0,16.72,0,25.08,0c0.36,0,0.72,0,1.08,0.01c0.98,0.01,1.46,0.33,1.45,1.49
	c-0.04,12.36-0.03,24.72-0.03,37.08c0,1.57-0.02,1.59-1.61,1.59c-8.76,0.01-17.52,0-26.28,0c-1.83,0-1.91,0.06-1.91,1.87
	c0,18.56-0.03,37.12,0.05,55.67c0.01,2.01,0.62,4.02,0.95,6.04c1.26,0.35,0.36,2.16,1.68,2.51c0.12,0.03,0.04,0.56,0.19,0.76
	c0.51,0.67,1.01,1.38,1.65,1.9c0.73,0.6,1.6,1.05,2.42,1.53c0.47,0.27,0.95,0.57,1.46,0.69c0.89,0.21,1.93-0.18,2.59,0.83
	c0.11,0.17,0.6,0.12,0.92,0.12c3.64,0,7.28,0.01,10.92-0.03c0.4,0,0.81-0.32,1.21-0.5c0.21-0.09,0.41-0.29,0.61-0.29
	c1.39-0.03,2.78-0.01,4.27-0.01c0.02,0.48,0.06,0.95,0.06,1.42c0,11.64,0,23.28,0,34.92c0,1.6-0.67,2.31-2.23,2.62
	c-1.52,0.3-3.33,0.31-4.46,1.17c-1.52,1.15-3.16,0.34-4.52,0.95c-3.7,1.64-7.54,0.66-11.31,0.85c-3.87,0.2-7.76-0.01-11.63-0.09
	c-0.36-0.01-0.72-0.34-1.08-0.49c-0.31-0.13-0.64-0.29-0.97-0.32c-0.88-0.07-1.77-0.01-2.63-0.13c-0.45-0.06-0.86-0.39-1.28-0.61
	c-0.13-0.07-0.24-0.22-0.38-0.26c-1.54-0.38-3.1-0.71-4.63-1.13c-1.22-0.33-2.89-0.41-3.51-1.24c-0.76-1-2.11-0.41-2.67-1.64
	c-0.28-0.6-1.58-0.68-2.36-1.1c-0.83-0.46-1.59-1.04-2.37-1.59c-0.61-0.43-1.22-0.87-1.81-1.33c-0.67-0.52-1.32-1.06-1.98-1.6
	c-0.61-0.51-1.24-1-1.82-1.54c-0.42-0.38-0.82-0.8-1.15-1.26c-0.53-0.74-0.97-1.54-1.49-2.29c-0.28-0.41-0.63-0.76-0.94-1.15
	c-0.92-1.16-1.84-2.32-2.73-3.49c-0.13-0.17-0.06-0.48-0.17-0.68c-0.2-0.39-0.45-0.76-0.69-1.14c-0.04-0.06-0.16-0.09-0.16-0.15
	c-0.08-0.84-0.5-1.42-1-2.12c-0.73-1.04-0.62-2.66-1.31-3.76c-0.83-1.34-0.29-3.14-1.66-4.24c-0.22-0.18-0.13-0.75-0.19-1.14
	c-0.22-1.39,0.39-2.95-0.83-4.16c-0.17-0.17-0.1-0.62-0.1-0.93c-0.04-3.44-0.09-6.88-0.09-10.32c-0.01-20.24,0-40.48-0.01-60.71
	c0-2.62,0.22-2.39-2.4-2.39c-7.48-0.01-14.96-0.01-22.44-0.01C571.61,108.99,570.98,108.99,570.14,108.99z"/>
<path d="M868.12,69.04c0.78-0.08,1.49-0.2,2.2-0.21c13.6-0.01,27.2-0.01,40.79-0.01c0.24,0,0.48,0.02,0.72,0.01
	c0.94-0.04,1.32,0.32,1.3,1.33c-0.06,3.24-0.02,6.48-0.02,9.72c0,2.08-0.01,4.16,0.04,6.24c0.01,0.32,0.29,0.64,0.45,0.95
	c0.19-0.24,0.34-0.52,0.58-0.7c1.23-0.91,1.15-2.67,2.61-3.56c1.05-0.64,1.55-2.11,2.41-3.12c0.56-0.66,1.31-1.16,1.97-1.73
	c0.64-0.55,1.27-1.11,1.92-1.66c0.51-0.43,0.97-0.99,1.56-1.23c1.06-0.43,2.06-0.85,2.63-1.92c0.02-0.03,0.06-0.06,0.09-0.07
	c0.99-0.37,1.99-0.72,2.97-1.13c0.67-0.27,1.28-0.72,1.96-0.9c0.7-0.18,1.56,0.09,1.84-0.92c0.02-0.08,0.28-0.1,0.43-0.15
	c0.91-0.29,1.8-0.66,2.73-0.87c1.94-0.43,3.89-0.79,5.85-1.14c0.82-0.15,1.74,0.17,2.34-0.77c0.13-0.2,0.67-0.17,1.02-0.17
	c3.48-0.02,6.96-0.04,10.44,0.01c0.44,0.01,0.86,0.45,1.31,0.54c0.97,0.19,1.95,0.31,2.94,0.39c0.85,0.07,1.75-0.04,2.31,0.81
	c0.19,0.29,0.53,0.59,0.53,0.88c0.01,14.68,0,29.35-0.01,44.03c0,0.04-0.02,0.08-0.05,0.17c-1.48,0-3.26,0.52-4.4-0.12
	c-1.61-0.9-3.13-0.65-4.67-0.68c-3.72-0.09-7.44-0.03-11.16,0.04c-0.56,0.01-1.1,0.44-1.67,0.59c-0.52,0.14-1.08,0.15-1.61,0.26
	c-0.85,0.19-1.96-0.38-2.5,0.82c-0.05,0.12-0.45,0.07-0.68,0.12c-0.82,0.17-1.9-0.28-2.3,0.94c-0.02,0.05-0.14,0.06-0.21,0.09
	c-1.1,0.39-2.21,0.74-3.29,1.19c-0.46,0.19-0.96,0.5-1.23,0.9c-0.85,1.27-2.6,1.26-3.42,2.73c-0.68,1.21-2.12,1.96-3.05,3.07
	c-1.01,1.22-2.53,2.03-2.82,3.89c-0.13,0.83-1.08,1.54-1.66,2.3c-0.05,0.06-0.1,0.13-0.13,0.2c-0.38,1.22-0.48,2.67-1.22,3.62
	c-1.03,1.32-0.33,3.19-1.77,4.34c-0.37,0.3-0.06,1.39-0.2,2.08c-0.12,0.61-0.44,1.18-0.63,1.78c-0.12,0.37-0.2,0.76-0.21,1.15
	c-0.06,4.04-0.15,8.08-0.15,12.12c-0.01,20.68-0.01,41.35-0.01,62.03c0,1.76-0.7,2.48-2.42,2.48c-14.04,0-28.08,0-42.11,0
	c-1.77,0-2.37-0.61-2.37-2.37c0-48.79,0-97.59,0-146.38C868.12,70.42,868.12,69.79,868.12,69.04z"/>
  </g>
</svg>
