<svg id="Layer_1" data-name="Layer 1" xmlns="http://www.w3.org/2000/svg" viewBox="0 0 148.65 134.33"><defs><style>.cls-1{fill:#f7f7f7;}.cls-2{fill:#f9f3e8;}.cls-3{fill:#fff;}.cls-4{fill:none;stroke:#231f20;stroke-miterlimit:10;}</style></defs><title>bronson</title><path class="cls-1" d="M55.06,124.73c11.39-1.66,12.35-2,12.35-2l4.71,11.57,13.14-10.62,8,8.49,4.76-6.15,13.88,1.5S99.32,116,95.77,111.5c-2.8-3.51-9.5-15.23-9.5-15.23s-9.36,10.49-12.8,13.67C69.14,114,55.06,124.73,55.06,124.73Z"/><path class="cls-2" d="M121.52,64.63c1.23,2.41,4.52,8.18,7.79,13.68h0c3.71,6.26,7.39,12.17,7.92,12.34,2.41.77,14.35-12.77,10.75-23.15-2-5.73-23.63-13.46-23.63-14"/><path class="cls-3" d="M124.17,54.52s-.23-3-.23-5.05c0-5,2.38-5.82,1.23-10.45C122.25,27.27,86.68,4.41,86.68,4.41a16.24,16.24,0,0,1,.37,10.7L77.41,0C74.88-.31,55.22,3.08,55.22,3.08S68.05,10,68,9.85C67.76,9.93,34.6,1,34.26,1.07L42.42,20.5l-9.24-8.21-1.95,7.49-16.12-7L26.37,30.64,9.2,26.41c21.68,17.46,8.31,14.64,8.31,27.06l-.05-1.59,10.15,8-.29,23.38,7.11-5.64-5.12,8.29L27.16,96.66l6.24-5.74-7.33,15.36,14.76-2.64-9.29,13,10.64-2.14-.79,7.49,10.14-6.19-.28,11S70.62,118.84,76.5,111c2.67-3.54,9.73-10.65,9.73-10.65s5.46,7.87,8.25,11.2c6.78,8.1,17.45,17,17.45,17l11.68-8.86-2.09-6.91,8.13-3.57L127,103.44l7.21,2.41-2.94-9.8-2.89-4.53,6.68,2.5s-5.73-8.66-6.48-11-5.45-5.9-5.45-5.9l6,2.18h0c-.07-.11-7.72-11.52-7.79-13.68Z"/><path class="cls-2" d="M17.46,51.86h0C15.36,70.91,2.7,72,.57,78.14-3.3,89.27,13.75,106.73,17.23,102.9c3.81-4.2,10.38-43,10.38-43"/><path d="M97.59,85c2.72,2.93-7.32,11.32-11.32,11.32S71.93,87.57,75,85C80.53,80.14,93.11,80.14,97.59,85Z"/><path d="M98.21,64.06c.83.68,2,1.18,2.59.37s.47-2.92.43-3.82c-.07-1.73-.5-5.29-2.34-6.16C94.17,52.22,97.07,62.55,98.21,64.06Z"/><path d="M61.07,66.68c.59-.07,1.27,0,1.84-.08,1.32-.27.68.18,1.13-.91s.08-3-.14-4.13c-.3-1.55-.84-4.48-2.82-4.71s-2.56,2-2.58,3.53C58.46,62.87,59.58,64.79,61.07,66.68Z"/><path class="cls-4" d="M30.85,64.85"/></svg>
