<svg id="Layer_1" data-name="Layer 1" xmlns="http://www.w3.org/2000/svg" viewBox="0 0 375.47 316.06"><title>ima</title><path d="M214.32,0h13.93c4.3,0,8.77.74,13.07,1.12a179.82,179.82,0,0,1,25.5,4.08,162.8,162.8,0,0,1,46.7,19c26.09,15.84,46.67,40.44,55.93,69.68a130.59,130.59,0,0,1,5.74,47.78c-1.12,16.86-6.29,33.23-12.75,48.75-12.16,29.26-30.66,56.35-55.14,76.64-25.15,20.84-55.6,34.91-87.23,42.59a240.21,240.21,0,0,1-26.73,4.92c-4.33.55-8.71,1.1-13.07,1.43-4.17.32-7.13-1.26-10.58-3.53-15.4-10.15-30.55-20.71-45.83-31L31.33,218.84l-23-15.6-5.53-3.75c-.65-.43-2.33-1.16-2.66-1.86s.59-1.71,1.19-2.57l7.94-11.44L41,137.87c20.15-29,39.89-58.8,64.29-84.49C128.36,29.08,156.5,9,190,2.75,194.08,2,198.18,1.42,202.29,1S210.41.72,214.32,0ZM158.64,141c19.89-9.55,37.43-23.48,50.44-41.38a114.27,114.27,0,0,0,26.11,26.1,167.35,167.35,0,0,0,16.27,10.47c2.72,1.54,5.9,3.92,8.92,4.75,1.17.33.62.47,1.46-.42a14.92,14.92,0,0,0,1.39-2.15l3-4.61a135.5,135.5,0,0,1-30.29-17.51,114.4,114.4,0,0,1-12.77-11.53Q220,101.47,217.21,98c-.85-1.06-1.69-2.13-2.51-3.22-.27-.37-1.35-1.36-1.36-1.85s1.49-2,1.79-2.43l-5.5-2.5a11.13,11.13,0,0,0-2.48-1.13c-.34.11-.88,1.89-1,2.19a55.51,55.51,0,0,1-5,8.5,100.52,100.52,0,0,1-13.44,14.53c-10.21,9.26-21.83,15.82-34,22A77.73,77.73,0,0,1,158.64,141Zm57.86,58.9c5.78-7.67,11.78-15.17,17.85-22.62,3-3.64,6-7.27,9-10.89l4.5-5.44c1.55-1.88,3.64-3.76,4.84-5.87.69-1.22.45-1.12-.5-2.25-.72-.86-1.44-1.71-2.18-2.56-1.61-1.85-3-1.43-5.37-1.31-5,.26-9.91.3-14.88.31q-14.79,0-29.57,0c-10.79,0-21.54.08-32.31-.7v8.87c12-.76,24-.7,36.1-.7,12.34,0,24.86-.6,37.18.08C230,169.41,220.18,183.17,208.21,195Zm9.92-62.25a184.29,184.29,0,0,0-17.15-10.87c-2.84-1.57-5.71-3.08-8.59-4.58-1.71-.9-2.14-1.13-3.42.34s-2.34,2.75-3.51,4.13a109.66,109.66,0,0,1,17.48,9.94c2.69,1.86,5.29,3.84,7.82,5.91.33.28,1.57,1.58,1.89,1.59s1.51-1.78,1.73-2Z"/></svg>
